<svg xmlns:xlink="http://www.w3.org/1999/xlink" width="32" height="29" viewBox="0 0 32 29" fill="none" xmlns="http://www.w3.org/2000/svg">
<path d="M14 28C15.1046 28 16 27.1046 16 26C16 24.8954 15.1046 24 14 24C12.8954 24 12 24.8954 12 26C12 27.1046 12.8954 28 14 28Z" stroke="#FFFFFF" stroke-width="2px" stroke-linecap="round" stroke-linejoin="round" fill="none"></path>
<path d="M26 28C27.1046 28 28 27.1046 28 26C28 24.8954 27.1046 24 26 24C24.8954 24 24 24.8954 24 26C24 27.1046 24.8954 28 26 28Z" stroke="#FFFFFF" stroke-width="2px" stroke-linecap="round" stroke-linejoin="round" fill="none"></path>
<path d="M1 1H6.55556L10.2778 17.7639C10.4048 18.4033 10.7527 18.9777 11.2605 19.3865C11.7683 19.7953 12.4037 20.0125 13.0556 20H26.5556C27.2074 20.0125 27.8428 19.7953 28.3506 19.3865C28.8585 18.9777 29.2063 18.4033 29.3333 17.7639L31 7.66667H8.5" stroke="#FFFFFF" stroke-width="2px" stroke-linecap="round" stroke-linejoin="round" fill="none"></path>
</svg>