<svg width="30" height="30" viewBox="0 0 30 30" version="1.1" xmlns="http://www.w3.org/2000/svg" xmlns:xlink="http://www.w3.org/1999/xlink">
    <g id="Symbols" stroke="none" stroke-width="1" fill="none" fill-rule="evenodd">
        <g id="Footer" transform="translate(-854.000000, -333.000000)" fill="#1BB9C1">
            <g id="Facebook" fill="#1BB9C1">
                <path d="M870.023972,363 L855.65577,363 C854.741045,363 854,362.258495 854,361.344127 L854,334.655757 C854,333.741156 854.741162,333 855.65577,333 L882.344347,333 C883.258722,333 884,333.741156 884,334.655757 L884,361.344127 C884,362.258611 883.258605,363 882.344347,363 L874.699566,363 L874.699566,351.382347 L878.599076,351.382347 L879.182972,346.854741 L874.699566,346.854741 L874.699566,343.964151 C874.699566,342.653305 875.06357,341.760006 876.943306,341.760006 L879.34082,341.758958 L879.34082,337.709432 C878.926179,337.654255 877.50299,337.530981 875.84722,337.530981 C872.390521,337.530981 870.023972,339.640954 870.023972,343.515756 L870.023972,346.854741 L866.114451,346.854741 L866.114451,351.382347 L870.023972,351.382347 L870.023972,363 L870.023972,363 Z" fill="#FFFFFF"></path>
            </g>
        </g>
    </g>
</svg>