<svg width="30" height="30" viewBox="0 0 30 30" version="1.1" xmlns="http://www.w3.org/2000/svg" xmlns:xlink="http://www.w3.org/1999/xlink">
    <g id="Symbols" stroke="none" stroke-width="1" fill="none" fill-rule="evenodd">
        <g id="Footer" transform="translate(-854.000000, -407.000000)" fill="#1BB9C1">
            <g id="Instagram" fill="#1BB9C1">
                <path d="M869.00003,407 C873.073755,407 873.584571,407.017267 875.184481,407.090267 C876.781056,407.163087 877.871459,407.416679 878.82557,407.78751 C879.811953,408.170786 880.648466,408.683686 881.48242,409.51758 C882.316314,410.351534 882.829214,411.188047 883.212549,412.17443 C883.583321,413.128541 883.836913,414.218944 883.909733,415.815519 C883.982733,417.415429 884,417.926245 884,422.00003 C884,426.073755 883.982733,426.584571 883.909733,428.184481 C883.836913,429.781056 883.583321,430.871459 883.212549,431.82557 C882.829214,432.811953 882.316314,433.648466 881.48242,434.48242 C880.648466,435.316314 879.811953,435.829214 878.82557,436.212549 C877.871459,436.583321 876.781056,436.836913 875.184481,436.909733 C873.584571,436.982733 873.073755,437 869.00003,437 C864.926245,437 864.415429,436.982733 862.815519,436.909733 C861.218944,436.836913 860.128541,436.583321 859.17443,436.212549 C858.188047,435.829214 857.351534,435.316314 856.51758,434.48242 C855.683686,433.648466 855.170786,432.811953 854.78751,431.82557 C854.416679,430.871459 854.163087,429.781056 854.090267,428.184481 C854.017267,426.584571 854,426.073755 854,422.00003 C854,417.926245 854.017267,417.415429 854.090267,415.815519 C854.163087,414.218944 854.416679,413.128541 854.78751,412.17443 C855.170786,411.188047 855.683686,410.351534 856.51758,409.51758 C857.351534,408.683686 858.188047,408.170786 859.17443,407.78751 C860.128541,407.416679 861.218944,407.163087 862.815519,407.090267 C864.415429,407.017267 864.926245,407 869.00003,407 Z M869.00003,409.702698 C864.994838,409.702698 864.520402,409.718 862.938713,409.790166 C861.476228,409.856854 860.681989,410.101216 860.153429,410.306638 C859.453268,410.578748 858.953587,410.903791 858.428719,411.428719 C857.903791,411.953587 857.578748,412.453268 857.306638,413.153429 C857.101216,413.681989 856.856854,414.476228 856.790166,415.938713 C856.718,417.520402 856.702698,417.994838 856.702698,422.00003 C856.702698,426.005162 856.718,426.479598 856.790166,428.061287 C856.856854,429.523772 857.101216,430.318011 857.306638,430.846571 C857.578748,431.546732 857.903851,432.046413 858.428719,432.571281 C858.953587,433.096209 859.453268,433.421252 860.153429,433.693362 C860.681989,433.898784 861.476228,434.143146 862.938713,434.209834 C864.520224,434.282 864.99454,434.297302 869.00003,434.297302 C873.00546,434.297302 873.479836,434.282 875.061287,434.209834 C876.523772,434.143146 877.318011,433.898784 877.846571,433.693362 C878.546732,433.421252 879.046413,433.096209 879.571281,432.571281 C880.096209,432.046413 880.421252,431.546732 880.693362,430.846571 C880.898784,430.318011 881.143146,429.523772 881.209834,428.061287 C881.282,426.479598 881.297302,426.005162 881.297302,422.00003 C881.297302,417.994838 881.282,417.520402 881.209834,415.938713 C881.143146,414.476228 880.898784,413.681989 880.693362,413.153429 C880.421252,412.453268 880.096209,411.953587 879.571281,411.428719 C879.046413,410.903791 878.546732,410.578748 877.846571,410.306638 C877.318011,410.101216 876.523772,409.856854 875.061287,409.790166 C873.479598,409.718 873.005162,409.702698 869.00003,409.702698 Z M869.00003,414.297302 C873.25411,414.297302 876.702698,417.74589 876.702698,422.00003 C876.702698,426.25411 873.25411,429.702698 869.00003,429.702698 C864.74589,429.702698 861.297302,426.25411 861.297302,422.00003 C861.297302,417.74589 864.74589,414.297302 869.00003,414.297302 Z M869.00003,427 C871.761437,427 874,424.761437 874,422.00003 C874,419.238563 871.761437,417 869.00003,417 C866.238563,417 864,419.238563 864,422.00003 C864,424.761437 866.238563,427 869.00003,427 Z M878.807052,413.99298 C878.807052,414.987103 878.001143,415.792953 877.00702,415.792953 C876.012956,415.792953 875.207047,414.987103 875.207047,413.99298 C875.207047,412.998857 876.012956,412.192948 877.00702,412.192948 C878.001143,412.192948 878.807052,412.998857 878.807052,413.99298 Z" fill="#FFFFFF"></path>
            </g>
        </g>
    </g>
</svg>