<svg width="30" height="25" viewBox="0 0 30 25" version="1.1" xmlns="http://www.w3.org/2000/svg" xmlns:xlink="http://www.w3.org/1999/xlink">
    <g id="Symbols" stroke="none" stroke-width="1" fill="none" fill-rule="evenodd">
        <g id="Footer" transform="translate(-854.000000, -481.000000)" fill="#1BB9C1">
            <g id="Twitter" fill="#1BB9C1">
                <path d="M884,483.959552 C882.897693,484.461538 881.710865,484.801011 880.465927,484.952691 C881.737278,484.172625 882.712802,482.935717 883.17239,481.462261 C881.982039,482.184543 880.666667,482.710004 879.26149,482.991694 C878.141574,481.765619 876.54094,481 874.769502,481 C871.372777,481 868.61701,483.82593 868.61701,487.310943 C868.61701,487.805706 868.669836,488.286024 868.775489,488.748285 C863.660151,488.484651 859.125902,485.97472 856.088396,482.15204 C855.558373,483.087396 855.255503,484.172625 855.255503,485.328277 C855.255503,487.516793 856.341962,489.448899 857.993661,490.581076 C856.986441,490.550379 856.03557,490.263272 855.204437,489.793788 L855.204437,489.871434 C855.204437,492.9303 857.32629,495.481762 860.143687,496.059588 C859.627751,496.207656 859.083641,496.28169 858.521923,496.28169 C858.125726,496.28169 857.738334,496.24377 857.363268,496.169736 C858.146857,498.676056 860.418384,500.501625 863.11252,500.550379 C861.006515,502.244131 858.351118,503.253521 855.468568,503.253521 C854.972002,503.253521 854.480718,503.22463 854,503.166847 C856.724071,504.954496 859.960556,506 863.43476,506 C874.757176,506 880.946646,496.384615 880.946646,488.044059 C880.946646,487.769592 880.941363,487.495125 880.930798,487.226074 C882.133474,486.335861 883.177672,485.225352 884,483.959552" fill="#00ACB7"></path>
            </g>
        </g>
    </g>
</svg>