<svg xmlns:xlink="http://www.w3.org/1999/xlink" width="24" height="17" viewBox="0 0 24 17" fill="none" xmlns="http://www.w3.org/2000/svg">
<path fill-rule="evenodd" clip-rule="evenodd" d="M22.7325 1.26474C23.1041 1.64781 23.368 2.12216 23.4976 2.63986C23.8436 4.55834 24.0116 6.5047 23.9994 8.45411C24.0063 10.3744 23.8383 12.2913 23.4976 14.1811C23.368 14.6988 23.1041 15.1731 22.7325 15.5562C22.3609 15.9393 21.8949 16.2175 21.3813 16.3628C19.5051 16.8646 12 16.8646 12 16.8646C12 16.8646 4.49494 16.8646 2.61867 16.3628C2.11559 16.2251 1.65652 15.9601 1.2858 15.5932C0.915092 15.2263 0.645273 14.77 0.502416 14.2684C0.156362 12.3499 -0.0116166 10.4035 0.00062358 8.45411C-0.00893673 6.51927 0.159031 4.58764 0.502416 2.6835C0.631997 2.16579 0.895904 1.69145 1.26748 1.30838C1.63906 0.925305 2.10515 0.647077 2.61867 0.501792C4.49494 0 12 0 12 0C12 0 19.5051 0 21.3813 0.458158C21.8949 0.603443 22.3609 0.881671 22.7325 1.26474ZM15.8179 8.45405L9.54553 12.0211V4.88696L15.8179 8.45405Z" fill="#FFFFFF"></path>
</svg>