<svg xmlns:xlink="http://www.w3.org/1999/xlink" xmlns="http://www.w3.org/2000/svg" width="31" height="30" viewBox="0 0 31 30" fill="none">
<g clip-path="url(#clip0)">
<path d="M30.7821 0H0V30H30.7821V20.0989C30.9022 19.9293 30.9677 19.7067 30.9677 19.4417C30.9677 19.1343 30.9022 18.9435 30.7821 18.7845" fill="#006FCF"/>
<path d="M2.77356 12.9752L2.1839 11.5759L1.59425 12.9752H2.77356ZM15.8224 12.424C15.7023 12.4982 15.5603 12.4982 15.3965 12.4982H14.3482V11.7137H15.4184C15.5712 11.7137 15.7241 11.7243 15.8333 11.7774C15.9425 11.8304 16.0189 11.9364 16.0189 12.0848C15.9971 12.2438 15.9316 12.3604 15.8224 12.424ZM23.3241 12.9752L22.7235 11.5759L22.1229 12.9752H23.3241ZM9.3471 14.5017H8.46262V11.7456L7.20688 14.5017H6.44251L5.18677 11.7456V14.5017H3.41781L3.09022 13.7173H1.2885L0.949998 14.5017H0.0109195L1.56149 10.9823H2.84999L4.31321 14.3109V10.9823H5.72183L6.85745 13.3675L7.89481 10.9823H9.33618L9.3471 14.5017ZM12.8741 14.5017H9.99135V10.9823H12.885V11.7137H10.854V12.3498H12.8304V13.0706H10.854V13.7703H12.8741V14.5017ZM16.958 11.9258C16.958 12.4876 16.5758 12.7738 16.3465 12.8586C16.5321 12.9328 16.6959 13.0494 16.7724 13.1554C16.8925 13.3251 16.9143 13.4841 16.9143 13.8021V14.4911H16.0408V14.0459C16.0408 13.8339 16.0626 13.5265 15.8988 13.3569C15.7678 13.2297 15.5821 13.2084 15.2655 13.2084H14.3373V14.4911H13.4747V10.9717H15.462C15.8988 10.9717 16.2264 10.9823 16.5103 11.1413C16.7942 11.3109 16.958 11.5335 16.958 11.9258ZM18.3448 14.5017H17.4603V10.9823H18.3448V14.5017ZM28.5873 14.5017H27.3643L25.7264 11.8622V14.5017H23.9683L23.6298 13.7173H21.8281L21.5005 14.5017H20.485C20.0591 14.5017 19.535 14.4063 19.2293 14.1095C18.9235 13.8127 18.7706 13.4099 18.7706 12.7632C18.7706 12.2438 18.8689 11.7668 19.2402 11.3851C19.5241 11.1095 19.9609 10.9717 20.5505 10.9717H21.3913V11.7243H20.5724C20.2557 11.7243 20.081 11.7668 19.9063 11.9364C19.7534 12.0848 19.6551 12.3604 19.6551 12.7314C19.6551 13.113 19.7316 13.3781 19.8954 13.5583C20.0264 13.6961 20.2666 13.7385 20.4959 13.7385H20.889L22.112 10.9717H23.4114L24.8747 14.3003V10.9717H26.1959L27.7137 13.4205V10.9717H28.5982V14.5017H28.5873ZM0 15.1908H1.47413L1.81264 14.4063H2.55517L2.88275 15.1908H5.78734V14.5971L6.04941 15.2014H7.5563L7.81837 14.5971V15.2014H15.0471V13.9187H15.189C15.2873 13.9187 15.3201 13.9293 15.3201 14.0883V15.2014H19.0546V14.9046C19.3603 15.0636 19.8298 15.2014 20.4413 15.2014H22.0137L22.3522 14.4169H23.0948L23.4224 15.2014H26.458V14.4593L26.9166 15.2014H29.3407V10.2827H26.9384V10.8657L26.5999 10.2827H24.1321V10.8657L23.8264 10.2827H20.4959C19.939 10.2827 19.4477 10.3569 19.0546 10.5689V10.2827H16.7505V10.5689C16.4994 10.3569 16.15 10.2827 15.7678 10.2827H7.38159L6.8247 11.5547L6.24596 10.2827H3.59252V10.8657L3.30861 10.2827H1.04827L0 12.6148V15.1908Z" fill="white"/>
<path d="M30.7821 17.7774H29.2097C29.0568 17.7774 28.9477 17.788 28.8603 17.841C28.7729 17.894 28.7293 17.9788 28.7293 18.0954C28.7293 18.2332 28.8057 18.318 28.9149 18.3604C29.0023 18.3922 29.1005 18.4028 29.2534 18.4028L29.7229 18.4134C30.1925 18.424 30.5091 18.5088 30.7057 18.6996C30.7385 18.7314 30.7603 18.7526 30.7821 18.7844V17.7774ZM30.7821 20.0989C30.5747 20.3957 30.1597 20.5442 29.6028 20.5442H27.9321V19.7915H29.5919C29.7557 19.7915 29.8758 19.7703 29.9413 19.7067C30.0068 19.6537 30.0396 19.5689 30.0396 19.4735C30.0396 19.3675 29.9959 19.2933 29.9304 19.2403C29.8649 19.1873 29.7775 19.1661 29.6247 19.1661C28.8166 19.1343 27.8011 19.1873 27.8011 18.0742C27.8011 17.5654 28.1396 17.0247 29.0459 17.0247H30.7712V16.3251H29.166C28.6856 16.3251 28.3362 16.4417 28.085 16.6113V16.3251H25.7155C25.3333 16.3251 24.8965 16.4205 24.6781 16.6113V16.3251H20.4523V16.6113C20.1138 16.3781 19.546 16.3251 19.2839 16.3251H16.4885V16.6113C16.2264 16.3569 15.6258 16.3251 15.2655 16.3251H12.1425L11.4328 17.0777L10.7667 16.3251H6.12587V21.2332H10.7011L11.4328 20.4699L12.1316 21.2332H14.9488V20.0777H15.2218C15.5931 20.0883 16.0408 20.0671 16.423 19.9081V21.2332H18.7488V19.9505H18.858C19 19.9505 19.0109 19.9611 19.0109 20.0989V21.2332H26.0977C26.5454 21.2332 27.0149 21.1166 27.277 20.9152V21.2332H29.5155C29.985 21.2332 30.4327 21.1696 30.7821 21.0106V20.0989ZM27.3316 18.689C27.4954 18.8586 27.5936 19.0707 27.5936 19.4311C27.5936 20.1837 27.1023 20.5442 26.2396 20.5442H24.558V19.7915H26.2396C26.4034 19.7915 26.5235 19.7703 26.589 19.7067C26.6436 19.6537 26.6873 19.5689 26.6873 19.4735C26.6873 19.3675 26.6436 19.2933 26.5781 19.2403C26.5126 19.1873 26.4252 19.1661 26.2724 19.1661C25.4643 19.1343 24.4488 19.1873 24.4488 18.0742C24.4488 17.5654 24.7764 17.0247 25.6827 17.0247H27.4189V17.7774H25.8356C25.6827 17.7774 25.5735 17.788 25.4862 17.841C25.3879 17.894 25.3551 17.9788 25.3551 18.0954C25.3551 18.2332 25.4316 18.318 25.5408 18.3604C25.6281 18.3922 25.7264 18.4028 25.8793 18.4028L26.3488 18.4134C26.8183 18.424 27.135 18.4982 27.3316 18.689ZM19.5241 18.477C19.404 18.5406 19.262 18.5512 19.0983 18.5512H18.05V17.7668H19.1201C19.273 17.7668 19.4258 17.7668 19.535 17.8304C19.6442 17.8834 19.7097 18 19.7097 18.1484C19.7097 18.2862 19.6442 18.4134 19.5241 18.477ZM20.0483 18.9116C20.2448 18.9858 20.3977 19.1025 20.4741 19.2085C20.5942 19.3781 20.6161 19.5371 20.6161 19.8551V20.5548H19.7425V20.1201C19.7425 19.9081 19.7643 19.6007 19.6006 19.4311C19.4695 19.3039 19.2839 19.2721 18.9672 19.2721H18.0391V20.5548H17.1655V17.0353H19.1638C19.6006 17.0353 19.9172 17.0565 20.2011 17.2049C20.4741 17.3639 20.6488 17.5866 20.6488 17.9894C20.6597 18.5406 20.2776 18.8268 20.0483 18.9116ZM21.1402 17.0353H24.023V17.7668H21.9919V18.4028H23.9684V19.1237H21.9919V19.8233H24.023V20.5548H21.1402V17.0353ZM15.3092 18.6572H14.1954V17.7668H15.3201C15.6368 17.7668 15.8442 17.894 15.8442 18.2014C15.8442 18.4982 15.6368 18.6572 15.3092 18.6572ZM13.3218 20.2261L11.9896 18.795L13.3218 17.4063V20.2261ZM9.8931 19.8127H7.7638V19.1131H9.66379V18.3922H7.7638V17.7562H9.93678L10.8868 18.7844L9.8931 19.8127ZM16.7724 18.1908C16.7724 19.1661 16.019 19.3675 15.2655 19.3675H14.1845V20.5442H12.5029L11.4328 19.3781L10.3299 20.5442H6.90116V17.0247H10.3845L11.4546 18.1802L12.5575 17.0247H15.3201C15.9971 17.0353 16.7724 17.2155 16.7724 18.1908Z" fill="white"/>
</g>
<defs>
<clipPath id="clip0">
<rect width="30.9677" height="30" fill="white"/>
</clipPath>
</defs>
</svg>