<svg xmlns:xlink="http://www.w3.org/1999/xlink" xmlns="http://www.w3.org/2000/svg" width="47" height="29" viewBox="0 0 47 29" fill="none">
<path d="M1.70864 0H45.2914C46.2352 0 47 0.7415 47 1.65668V27.342C47 28.2572 46.2352 28.9987 45.2914 28.9987H1.70864C0.764754 28.9987 0 28.2572 0 27.342V1.65668C0 0.7415 0.764754 0 1.70864 0Z" fill="#F9F9F9"/>
<path d="M5.81765 4.95935H6.22001V15.3217H5.81765V4.95935ZM6.62237 4.95935H7.02472V15.3217H6.62237V4.95935ZM9.03927 4.95935H9.44162V15.3217H9.03927V4.95935ZM16.8742 4.95935H17.2766V15.3217H16.8742V4.95935ZM19.4937 4.95935H19.896V15.3217H19.4937V4.95935ZM22.0332 4.95935H22.4356V15.3217H22.0332V4.95935ZM22.6877 4.95935H23.0901V15.3217H22.6877V4.95935ZM23.3436 4.95935H23.746V15.3217H23.3436V4.95935ZM24.0794 4.95935H24.4818V15.3217H24.0794V4.95935ZM24.8166 4.95935H25.219V15.3217H24.8166V4.95935ZM26.8642 4.95935H27.2666V15.3217H26.8642V4.95935ZM31.9406 4.95935H32.3429V15.3217H31.9406V4.95935ZM37.236 4.95935H37.6383V15.3217H37.236V4.95935ZM38.6842 4.95935H39.0865V15.3217H38.6842V4.95935ZM39.7314 4.95935H40.1338V15.3217H39.7314V4.95935ZM40.3763 4.95935H40.7786V15.3217H40.3763V4.95935ZM11.6973 4.95935H12.0997V15.3217H11.6973V4.95935ZM7.6696 4.95935H8.39439V15.3217H7.6696V4.95935ZM12.4524 4.95935H13.1772V15.3217H12.4524V4.95935ZM15.8104 4.95935H16.5352V15.3217H15.8104V4.95935ZM17.5301 4.95935H18.2549V15.3217H17.5301V4.95935ZM20.2322 4.95935H20.957V15.3217H20.2322V4.95935ZM27.9363 4.95935H29.0634V15.3217H27.9363V4.95935ZM29.4093 4.95935H30.2953V15.3217H29.4093V4.95935ZM30.9622 4.95935H31.687V15.3217H30.9622V4.95935ZM33.0167 4.95935H34.2252V15.3217H33.0167V4.95935ZM35.3826 4.95935H36.5911V15.3217H35.3826V4.95935ZM9.84398 4.95935H11.2936V15.3217H9.84398V4.95935ZM13.6016 4.95935H14.7288V15.3217H13.6016V4.95935Z" fill="#010101"/>
<path d="M6.33853 24.523V18.5923H8.63417C9.01724 18.5776 9.4003 18.639 9.75857 18.7726C10.0328 18.8862 10.2656 19.0799 10.4214 19.3271C10.5771 19.5609 10.6597 19.8321 10.6611 20.11C10.6611 20.3639 10.5867 20.611 10.4489 20.8261C10.2918 21.0626 10.07 21.251 9.80679 21.3686C10.1444 21.4527 10.4448 21.6411 10.6611 21.9057C10.8623 22.1635 10.967 22.4802 10.9587 22.8035C10.9615 23.072 10.8995 23.3366 10.7782 23.5784C10.6749 23.7948 10.5206 23.9845 10.3277 24.1315C10.1265 24.2718 9.89912 24.3706 9.65798 24.4254C9.33416 24.4976 9.00346 24.531 8.67138 24.5243H6.33853V24.523ZM7.14876 21.084H8.47158C8.73063 21.0933 8.9883 21.0706 9.24046 21.0159C9.42511 20.9704 9.58908 20.8662 9.70483 20.7206C9.81368 20.5696 9.8688 20.3866 9.86053 20.2022C9.86467 20.0192 9.81368 19.8388 9.71447 19.6825C9.6194 19.5342 9.47333 19.4246 9.30109 19.3739C8.99657 19.3057 8.68378 19.2777 8.37099 19.291H7.14876V21.084ZM7.14876 23.8229H8.67138C8.85602 23.8282 9.03928 23.8175 9.22255 23.7948C9.3879 23.7694 9.54637 23.712 9.68967 23.6291C9.82057 23.5463 9.92667 23.4328 9.99833 23.2978C10.081 23.1442 10.1223 22.9732 10.1196 22.8008C10.1251 22.5951 10.0645 22.392 9.94459 22.221C9.82609 22.0566 9.65522 21.9364 9.45818 21.8776C9.16743 21.8014 8.86566 21.768 8.5639 21.7787H7.14876V23.8229ZM12.1424 21.6344C12.0914 20.7887 12.3849 19.959 12.9609 19.3218C13.5093 18.7633 14.2782 18.46 15.0719 18.4867C15.6079 18.4801 16.137 18.615 16.5986 18.8795C17.0478 19.1374 17.4089 19.5182 17.6348 19.9737C17.8787 20.4708 18.0014 21.0159 17.9917 21.565C18.0014 22.1248 17.8732 22.6779 17.6169 23.1789C17.3841 23.6345 17.0134 24.0113 16.5532 24.2558C16.0984 24.4989 15.5872 24.6245 15.0678 24.6218C14.5248 24.6312 13.9902 24.4909 13.5245 24.2183C13.0766 23.9551 12.7184 23.5717 12.4924 23.1134C12.2609 22.6525 12.141 22.1461 12.1424 21.6344ZM12.9774 21.6465C12.943 22.2637 13.1566 22.8703 13.5754 23.3366C13.9571 23.7414 14.5014 23.9672 15.0678 23.9538C15.6368 23.9672 16.1853 23.74 16.5669 23.3299C16.9886 22.8355 17.2008 22.2023 17.1581 21.5623C17.1691 21.1281 17.085 20.6979 16.9101 20.2984C16.7557 19.9537 16.498 19.6624 16.1715 19.4607C15.8449 19.2616 15.466 19.1588 15.0802 19.1628C14.5276 19.1548 13.9957 19.3605 13.6003 19.7359C13.1318 20.2623 12.9071 20.9531 12.9774 21.6465ZM19.3187 24.523V18.5923H20.1275V23.8215H23.1397V24.5216H19.3187V24.523ZM24.4377 24.523V18.5923H28.8609V19.2924H25.2466V21.108H28.6308V21.8041H25.2466V23.8215H29.0028V24.5216H24.4377V24.523ZM31.9943 24.523V19.2924H29.9784V18.5923H34.8273V19.2924H32.8032V24.523H31.9943ZM35.5728 21.6344C35.5218 20.7887 35.8167 19.959 36.3927 19.3218C36.9411 18.7633 37.71 18.46 38.5037 18.4867C39.0397 18.4801 39.5688 18.615 40.0304 18.8795C40.4796 19.1374 40.8407 19.5182 41.0666 19.9737C41.3105 20.4708 41.4332 21.0159 41.4235 21.565C41.4332 22.1248 41.305 22.6779 41.0487 23.1789C40.8159 23.6358 40.4424 24.0126 39.9808 24.2571C39.5261 24.5002 39.0149 24.6258 38.4954 24.6232C37.9511 24.6312 37.4165 24.4922 36.9507 24.2183C36.5043 23.9551 36.146 23.5704 35.9214 23.1134C35.6913 22.6525 35.5714 22.1461 35.5728 21.6344ZM36.4078 21.6465C36.3734 22.2637 36.587 22.8703 37.0059 23.3366C37.3876 23.7414 37.9318 23.9672 38.4982 23.9538C39.07 23.9698 39.6184 23.7414 40.0015 23.3312C40.4231 22.8369 40.6353 22.2036 40.5926 21.5636C40.6009 21.1294 40.5141 20.6979 40.3363 20.2997C40.182 19.955 39.9243 19.6638 39.5978 19.462C39.2712 19.263 38.8923 19.1601 38.5064 19.1641C37.9539 19.1561 37.422 19.3618 37.0265 19.7373C36.5608 20.2637 36.3362 20.9531 36.4078 21.6465Z" fill="black"/>
</svg>