<svg xmlns:xlink="http://www.w3.org/1999/xlink" xmlns="http://www.w3.org/2000/svg" width="85" height="22" viewBox="0 0 85 22" fill="none">
<path d="M11.4162 21.7805C17.4403 21.7805 22.3238 17.0398 22.3238 11.1919C22.3238 5.34404 17.4403 0.603394 11.4162 0.603394C5.39214 0.603394 0.508652 5.34404 0.508652 11.1919C0.508652 17.0398 5.39214 21.7805 11.4162 21.7805Z" fill="white"/>
<path d="M29.8405 4.71833C29.8405 3.67593 29.2753 3.7308 28.7667 3.7308V3.45648C29.2188 3.45648 29.7274 3.45648 30.1796 3.45648C30.6882 3.45648 31.3664 3.45648 32.2141 3.45648C35.3225 3.45648 36.9615 5.43154 36.9615 7.51633C36.9615 8.66845 36.2833 11.5213 32.0446 11.5213C31.4229 11.5213 30.8577 11.5213 30.2926 11.5213C29.7839 11.5213 29.2188 11.5213 28.7101 11.5213V11.247C29.4449 11.1921 29.7839 11.1373 29.7839 10.3692V4.71833H29.8405ZM30.9708 10.1497C30.9708 11.0276 31.649 11.1373 32.2141 11.1373C34.8139 11.1373 35.6051 9.27194 35.6051 7.51633C35.6051 5.37668 34.1922 3.78566 31.875 3.78566C31.4229 3.84052 31.1968 3.84052 30.9708 3.84052V10.1497Z" fill="black"/>
<path d="M37.3571 11.1919H37.5831C37.9222 11.1919 38.1483 11.1919 38.1483 10.8078V7.68065C38.1483 7.18689 37.9787 7.07716 37.5266 6.85771V6.69312C38.0918 6.52853 38.77 6.30908 38.8265 6.25422C38.883 6.19936 38.996 6.19936 39.0525 6.19936C39.1091 6.19936 39.1091 6.25422 39.1091 6.36395V10.8078C39.1091 11.1919 39.3916 11.1919 39.7307 11.1919H39.9568V11.5211C39.5612 11.5211 39.1091 11.5211 38.7134 11.5211C38.2613 11.5211 37.8657 11.5211 37.4136 11.5211V11.1919H37.3571ZM38.6569 4.44375C38.3743 4.44375 38.0918 4.16943 38.0918 3.84025C38.0918 3.56594 38.3743 3.29163 38.6569 3.29163C38.9395 3.29163 39.2221 3.51108 39.2221 3.84025C39.2221 4.16943 38.9395 4.44375 38.6569 4.44375Z" fill="black"/>
<path d="M41.0306 7.79043C41.0306 7.35153 40.9176 7.2418 40.3524 7.02235V6.8029C40.8611 6.63831 41.3697 6.47372 41.9349 6.25427C41.9914 6.25427 41.9914 6.25427 41.9914 6.364V7.13208C42.6696 6.63831 43.2347 6.25427 44.026 6.25427C45.0433 6.25427 45.3824 6.96749 45.3824 7.84529V10.8079C45.3824 11.1919 45.6649 11.1919 46.004 11.1919H46.2301V11.5211C45.8345 11.5211 45.3823 11.5211 44.9867 11.5211C44.5346 11.5211 44.139 11.5211 43.6869 11.5211V11.2468H43.9129C44.252 11.2468 44.4781 11.2468 44.4781 10.8628V7.84529C44.4781 7.18694 44.0825 6.85776 43.4043 6.85776C43.0087 6.85776 42.4435 7.13208 42.0479 7.40639V10.8079C42.0479 11.1919 42.3305 11.1919 42.6696 11.1919H42.8956V11.5211C42.5 11.5211 42.0479 11.5211 41.6523 11.5211C41.2002 11.5211 40.8046 11.5211 40.3524 11.5211V11.2468H40.5785C40.9176 11.2468 41.1437 11.2468 41.1437 10.8628V7.79043H41.0306Z" fill="black"/>
<path d="M47.1343 8.33906C47.1343 8.44879 47.1343 8.61337 47.1343 8.99741C47.1909 10.0947 47.9256 10.9725 48.8863 10.9725C49.5645 10.9725 50.0732 10.6433 50.4688 10.2044L50.6383 10.369C50.0732 11.0822 49.395 11.6857 48.4342 11.6857C46.5127 11.6857 46.1736 9.93008 46.1736 9.162C46.1736 6.91263 47.756 6.25427 48.6038 6.25427C49.5645 6.25427 50.5818 6.85776 50.6383 8.06475C50.6383 8.11961 50.6383 8.22934 50.6383 8.2842L50.5253 8.33906H47.1343ZM49.2254 7.95502C49.508 7.95502 49.5645 7.79043 49.5645 7.68071C49.5645 7.07722 49.1689 6.63831 48.5472 6.63831C47.8125 6.63831 47.3039 7.13208 47.1909 8.00988H49.2254V7.95502Z" fill="black"/>
<path d="M50.8644 11.1919H51.2035C51.5426 11.1919 51.7687 11.1919 51.7687 10.8079V7.57098C51.7687 7.18694 51.3166 7.13208 51.147 7.07721V6.91263C51.9947 6.52859 52.5034 6.25427 52.6164 6.25427C52.6729 6.25427 52.7295 6.30914 52.7295 6.41886V7.46126C53.012 7.02235 53.5207 6.25427 54.2554 6.25427C54.538 6.25427 54.9336 6.47372 54.9336 6.85776C54.9336 7.18694 54.7075 7.46126 54.3684 7.46126C53.9728 7.46126 53.9728 7.18694 53.5772 7.18694C53.3511 7.18694 52.7295 7.46125 52.7295 8.17447V10.8628C52.7295 11.2468 52.9555 11.2468 53.2946 11.2468H53.9728V11.5211C53.2946 11.5211 52.8425 11.5211 52.3338 11.5211C51.8252 11.5211 51.3731 11.5211 50.9209 11.5211V11.1919H50.8644Z" fill="black"/>
<path d="M55.4422 9.93008C55.6117 10.6982 56.0639 11.3565 56.9681 11.3565C57.6463 11.3565 57.9289 10.9176 57.9289 10.5336C57.9289 9.162 55.3292 9.60091 55.3292 7.73557C55.3292 7.07722 55.8378 6.25427 57.1942 6.25427C57.5898 6.25427 58.0984 6.364 58.5506 6.58345L58.6071 7.73557H58.3245C58.2115 7.02235 57.8159 6.58345 57.0246 6.58345C56.5725 6.58345 56.1204 6.85776 56.1204 7.35153C56.1204 8.7231 58.8897 8.2842 58.8897 10.0947C58.8897 10.8628 58.268 11.6857 56.8551 11.6857C56.403 11.6857 55.8378 11.5211 55.3857 11.3017L55.2726 9.98495L55.4422 9.93008Z" fill="black"/>
<path d="M69.6277 5.541H69.3451C69.119 4.16943 68.1582 3.6208 66.8019 3.6208C65.4455 3.6208 63.4674 4.49861 63.4674 7.29661C63.4674 9.65571 65.1629 11.3016 67.0279 11.3016C68.2148 11.3016 69.1755 10.5335 69.4016 9.32654L69.6842 9.3814L69.4016 11.0821C68.893 11.3565 67.5366 11.6856 66.7453 11.6856C63.9761 11.6856 62.2241 9.93003 62.2241 7.35147C62.2241 4.99237 64.4282 3.29163 66.7453 3.29163C67.7061 3.29163 68.6104 3.56594 69.5711 3.89512L69.6277 5.541Z" fill="black"/>
<path d="M70.0233 11.192H70.2494C70.5885 11.192 70.8146 11.192 70.8146 10.8079V4.38898C70.8146 3.6209 70.645 3.6209 70.1929 3.51117V3.29172C70.645 3.12714 71.1537 2.90768 71.4363 2.79796C71.5493 2.7431 71.6623 2.68823 71.7188 2.68823C71.7753 2.68823 71.8319 2.7431 71.8319 2.85282V10.8628C71.8319 11.2468 72.1144 11.2468 72.4535 11.2468H72.6796V11.5211C72.284 11.5211 71.8319 11.5211 71.4363 11.5211C70.9841 11.5211 70.5885 11.5211 70.1364 11.5211V11.192H70.0233Z" fill="black"/>
<path d="M77.7095 10.8628C77.7095 11.0823 77.8225 11.0823 78.0486 11.0823C78.2181 11.0823 78.3877 11.0823 78.5007 11.0823V11.3017C77.9921 11.3566 77.0313 11.5761 76.8052 11.6858L76.7487 11.6309V10.6982C76.014 11.2469 75.5054 11.6858 74.6576 11.6858C74.0359 11.6858 73.3578 11.3017 73.3578 10.3142V7.35161C73.3578 7.0773 73.3012 6.74812 72.623 6.69326V6.47381C73.0752 6.47381 73.9794 6.41895 74.149 6.41895C74.262 6.41895 74.262 6.47381 74.262 6.74812V9.71072C74.262 10.0399 74.262 11.0274 75.2793 11.0274C75.6749 11.0274 76.2401 10.7531 76.6922 10.3142V7.18703C76.6922 6.96757 76.127 6.80299 75.6749 6.69326V6.58353C76.7487 6.52867 77.4269 6.41895 77.5399 6.41895C77.653 6.41895 77.653 6.47381 77.653 6.6384V10.8628H77.7095Z" fill="black"/>
<path d="M80.0831 7.07726C80.5353 6.69322 81.2135 6.25432 81.8351 6.25432C83.1915 6.25432 84.0392 7.40644 84.0392 8.66828C84.0392 10.2044 82.9089 11.6857 81.2135 11.6857C80.3092 11.6857 79.8571 11.4114 79.5745 11.3017L79.2354 11.576L79.0093 11.4663C79.1224 10.8079 79.1789 10.0947 79.1789 9.3815V4.38898C79.1789 3.6209 79.0093 3.6209 78.5572 3.51118V3.29172C79.0093 3.12714 79.518 2.90768 79.8006 2.79796C79.9136 2.7431 80.0266 2.68823 80.0831 2.68823C80.1397 2.68823 80.1962 2.7431 80.1962 2.85282V7.07726H80.0831ZM80.0831 10.2044C80.0831 10.6433 80.5353 11.3566 81.3265 11.3566C82.6264 11.3566 83.135 10.1496 83.135 9.10719C83.135 7.84534 82.1742 6.80295 81.2135 6.80295C80.7613 6.80295 80.4222 7.07726 80.0831 7.35157V10.2044Z" fill="black"/>
<path d="M28.7101 18.2144H28.8232C29.0492 18.2144 29.2753 18.1596 29.2753 17.8304V14.5386C29.2753 14.2094 29.0492 14.1546 28.8232 14.1546H28.7101V13.99C28.9362 13.99 29.3318 13.99 29.6709 13.99C30.01 13.99 30.4056 13.99 30.6882 13.99V14.1546H30.5752C30.3491 14.1546 30.123 14.2094 30.123 14.5386V17.8304C30.123 18.1596 30.3491 18.2144 30.5752 18.2144H30.6882V18.379C30.4056 18.379 30.01 18.379 29.6709 18.379C29.3318 18.379 28.9927 18.379 28.7101 18.379V18.2144Z" fill="black"/>
<path d="M30.6882 18.4338C30.3491 18.4338 30.01 18.4338 29.6709 18.4338C29.3318 18.4338 28.9927 18.4338 28.7102 18.4338H28.6536V18.2692H28.7102H28.8232C29.0493 18.2692 29.2753 18.2692 29.2753 17.94V14.6482C29.2753 14.3191 29.0493 14.3191 28.8232 14.3191H28.7102V14.0996H28.7667C28.9927 14.0996 29.3883 14.0996 29.7274 14.0996C30.0665 14.0996 30.4622 14.0996 30.7447 14.0996H30.8012V14.1545V14.2642H30.7447H30.6317C30.4056 14.2642 30.1796 14.2642 30.1796 14.5934V17.8851C30.1796 18.2143 30.4056 18.2143 30.6317 18.2143H30.7447L30.6882 18.4338ZM30.6317 18.3789V18.2692H30.5752C30.3491 18.2692 30.0665 18.2143 30.0665 17.8851V14.5934C30.0665 14.2642 30.3491 14.2093 30.5752 14.2093H30.6317V14.0996C30.3491 14.0996 29.9535 14.0996 29.6709 14.0996C29.3883 14.0996 28.9927 14.0996 28.7667 14.0996V14.2093H28.8232C29.0493 14.2093 29.3318 14.2642 29.3318 14.5934V17.8851C29.3318 18.2143 29.0493 18.2692 28.8232 18.2692H28.7667V18.3789C28.9927 18.3789 29.3883 18.3789 29.6709 18.3789C29.9535 18.3789 30.3491 18.3789 30.6317 18.3789Z" fill="black"/>
<path d="M35.153 17.1719V14.8128C35.153 14.3191 34.7574 14.2093 34.5878 14.2093H34.4183V14.0447C34.7008 14.0447 35.0399 14.0447 35.3225 14.0447C35.6051 14.0447 35.8312 14.0447 36.1137 14.0447V14.2093H36.0007C35.7181 14.2093 35.4355 14.2642 35.4355 15.0323V17.8851C35.4355 18.1046 35.4355 18.324 35.4921 18.5435H35.266L31.9316 14.9225V17.5011C31.9316 18.0497 32.0446 18.2143 32.5532 18.2143H32.6663V18.3789C32.3837 18.3789 32.1011 18.3789 31.8185 18.3789C31.536 18.3789 31.2534 18.3789 30.9143 18.3789V18.2143H31.0273C31.4794 18.2143 31.5925 17.94 31.5925 17.3914V14.758C31.5925 14.4288 31.3099 14.2093 31.0273 14.2093H30.9708V14.0447C31.1969 14.0447 31.4794 14.0447 31.7055 14.0447C31.875 14.0447 32.1011 14.0447 32.2707 14.0447L35.153 17.1719Z" fill="black"/>
<path d="M35.492 18.5436H35.2094L31.9315 14.9775V17.5012C31.9315 18.0498 32.0445 18.2144 32.4967 18.2144H32.6097V18.4339H32.5532C32.2706 18.4339 31.988 18.4339 31.7054 18.4339C31.4229 18.4339 31.1403 18.4339 30.8012 18.4339V18.2144H30.9142C31.3664 18.2144 31.4794 17.9401 31.4794 17.4463V14.8129C31.4794 14.4838 31.1968 14.2643 30.9142 14.2643H30.8012V14.2094V13.99C31.0273 13.99 31.3098 13.99 31.5359 13.99C31.7054 13.99 31.9315 13.99 32.1576 13.99L34.9834 17.1172V14.8129C34.9834 14.3192 34.6443 14.2643 34.4747 14.2643H34.3052V14.2094V13.99H34.3617C34.6443 13.99 34.9834 13.99 35.266 13.99C35.5485 13.99 35.7746 13.99 36.0572 13.99H36.1702V14.2643H36.1137H36.0007C35.7181 14.2643 35.4355 14.3192 35.4355 15.0324V17.8852C35.492 18.1047 35.492 18.3242 35.492 18.5436ZM35.266 18.4887H35.492C35.4355 18.3242 35.4355 18.1047 35.4355 17.8852V15.0324C35.4355 14.2643 35.7746 14.2094 36.0572 14.2094H36.1137V14.0997C35.8311 14.0997 35.6051 14.0997 35.3225 14.0997C35.0399 14.0997 34.7573 14.0997 34.4182 14.0997V14.2094H34.5312C34.7573 14.2094 35.0964 14.3192 35.0964 14.8129V17.172L32.2141 13.99C32.0445 13.99 31.8185 13.99 31.6489 13.99C31.4229 13.99 31.1403 13.99 30.9142 13.99V14.0997H30.9707C31.2533 14.0997 31.5924 14.3192 31.5924 14.7032V17.3366C31.5924 17.8304 31.4229 18.1596 30.9707 18.1596H30.9142V18.2693C31.1968 18.2693 31.4794 18.2693 31.762 18.2693C32.0445 18.2693 32.3271 18.2693 32.5532 18.2693V18.1596H32.4967C31.988 18.1596 31.875 17.9401 31.875 17.3915V14.8129L35.266 18.4887Z" fill="black"/>
<path d="M37.1311 14.3189C36.6224 14.3189 36.6224 14.4286 36.5094 14.8675H36.3399C36.3399 14.7029 36.3964 14.5383 36.3964 14.3189C36.3964 14.1543 36.4529 13.9897 36.4529 13.7703H36.6224C36.679 13.9348 36.8485 13.9348 37.018 13.9348H40.3525C40.522 13.9348 40.6916 13.9348 40.6916 13.7154H40.8611C40.8611 13.88 40.8046 14.0446 40.8046 14.2092C40.8046 14.3737 40.8046 14.5383 40.8046 14.7029L40.6351 14.7578C40.6351 14.5383 40.5786 14.1543 40.1829 14.1543H38.9961V17.5009C38.9961 17.9947 39.2222 18.0496 39.5613 18.0496H39.6743V18.2141C39.4482 18.2141 38.9396 18.2141 38.6005 18.2141C38.2049 18.2141 37.7528 18.2141 37.5267 18.2141V18.0496H37.6397C37.9788 18.0496 38.2049 17.9947 38.2049 17.5009V14.1543H37.1311V14.3189Z" fill="black"/>
<path d="M39.6743 18.4337C39.3917 18.4337 38.9396 18.4337 38.6005 18.4337C38.2049 18.4337 37.7527 18.4337 37.5267 18.4337V18.2143H37.6397C37.9788 18.2143 38.1483 18.2143 38.1483 17.7205V14.3739H37.131H38.2048V17.7754C38.2048 18.2691 37.9788 18.324 37.6397 18.324H37.5267V18.4337C37.8092 18.4337 38.2049 18.4337 38.6005 18.4337C38.9396 18.3788 39.3917 18.3788 39.6743 18.4337L39.6177 18.2691H39.5612C39.2221 18.2691 38.9961 18.2143 38.9961 17.7205V14.3739H40.0699C40.522 14.3739 40.5785 14.7579 40.5785 14.9774L40.7481 14.9225C40.7481 14.7579 40.7481 14.5933 40.7481 14.4287C40.7481 14.2641 40.8046 14.0995 40.8046 13.935H40.6916C40.635 14.0995 40.4655 14.1544 40.2959 14.0995H36.9615C36.9615 14.0995 36.9615 14.0995 36.905 14.0995C36.7354 14.0995 36.5659 14.0995 36.5094 13.935H36.3963C36.3963 14.0995 36.3963 14.2641 36.3398 14.4287C36.3398 14.5933 36.2833 14.7579 36.2833 14.9225H36.3963C36.5094 14.4836 36.5094 14.319 37.018 14.3739C36.5659 14.3739 36.5659 14.4836 36.4529 14.9225H36.2268V14.8676C36.2268 14.703 36.2833 14.5385 36.2833 14.319C36.2833 14.1544 36.3398 13.9898 36.3398 13.7704V13.7155H36.5094C36.5659 13.8801 36.6789 13.8801 36.8485 13.8801C36.8485 13.8801 36.8485 13.8801 36.905 13.8801H40.2394C40.409 13.8801 40.5785 13.8801 40.5785 13.7155V13.6606H40.635L40.8046 13.7155C40.8046 13.8801 40.7481 14.0447 40.7481 14.2093C40.7481 14.3739 40.7481 14.5384 40.7481 14.703L40.522 14.7579V14.703C40.522 14.4836 40.4655 14.0995 40.0699 14.0995H39.0526V17.3913C39.0526 17.8851 39.2787 17.8851 39.5612 17.8851H39.7308L39.6743 18.4337Z" fill="black"/>
<path d="M41.0306 18.2144H41.1437C41.3697 18.2144 41.5958 18.1596 41.5958 17.8304V14.5386C41.5958 14.2094 41.3697 14.1546 41.1437 14.1546H41.0306V13.99C41.4262 13.99 42.1044 13.99 42.6696 13.99C43.2348 13.99 43.9129 13.99 44.3086 13.99C44.3086 14.2643 44.3086 14.7032 44.3086 14.9775L44.139 15.0324C44.0825 14.6483 44.026 14.3192 43.3478 14.3192H42.4435V15.9651H43.2348C43.6304 15.9651 43.6869 15.7456 43.7434 15.4164H43.9129C43.9129 15.6359 43.9129 15.9102 43.9129 16.1296C43.9129 16.3491 43.9129 16.6234 43.9129 16.8429L43.7434 16.8977C43.6869 16.5137 43.6869 16.2942 43.2348 16.2942H42.4435V17.7755C42.4435 18.1596 42.8391 18.1596 43.2348 18.1596C44.026 18.1596 44.3651 18.1047 44.5346 17.3915L44.7042 17.4463C44.6477 17.7755 44.5346 18.1047 44.4781 18.4339C44.0825 18.4339 43.2913 18.4339 42.7261 18.4339C42.1609 18.4339 41.3697 18.4339 41.0306 18.4339V18.2144Z" fill="black"/>
<path d="M44.4781 18.4338C44.0825 18.4338 43.2913 18.4338 42.7261 18.4338C42.161 18.4338 41.3697 18.4338 41.0306 18.4338H40.9741V18.2692H41.0306H41.1437C41.3697 18.2692 41.5958 18.2692 41.5958 17.94V14.6482C41.5958 14.3191 41.3697 14.3191 41.1437 14.3191H41.0306V14.0996H41.0872C41.4828 14.0996 42.161 14.0996 42.7261 14.0996C43.2913 14.0996 43.9695 14.0996 44.3651 14.0996H44.4216V14.1545C44.4216 14.2642 44.4216 14.3739 44.4216 14.4836C44.4216 14.7031 44.4216 14.9225 44.4216 15.142L44.0825 15.0871V15.0323C44.026 14.6482 43.9695 14.3191 43.3478 14.3191H42.5001V15.9101H43.2348C43.6304 15.9101 43.6869 15.7455 43.7434 15.3614H43.9695V15.4163C43.9695 15.6358 43.9695 15.9101 43.9695 16.1295C43.9695 16.349 43.9695 16.6233 43.9695 16.8427L43.7434 16.8976V16.8427C43.6869 16.4587 43.6869 16.2393 43.2913 16.2393H42.5566V17.6657C42.5566 18.0497 42.8957 18.0497 43.2913 18.0497C44.0825 18.0497 44.3651 17.9949 44.5911 17.2816L44.8172 17.3365C44.6477 17.7754 44.5911 18.1046 44.4781 18.4338ZM44.4781 18.3789C44.5346 18.0497 44.5911 17.7205 44.7042 17.4462L44.5911 17.3914C44.4216 18.1046 44.026 18.1594 43.2348 18.1594C42.8391 18.1594 42.4435 18.1594 42.4435 17.7205V16.2393H43.2348C43.6869 16.2393 43.7434 16.5136 43.7434 16.8427L43.8564 16.7879C43.8564 16.5684 43.8564 16.349 43.8564 16.0747C43.8564 15.8552 43.8564 15.5809 43.8564 15.3614H43.7434C43.6869 15.6906 43.6304 15.9101 43.2348 15.9101H42.387V14.2642H43.2913C43.9695 14.2642 44.0825 14.5934 44.0825 14.9774L44.1955 14.9225C44.1955 14.758 44.1955 14.5385 44.1955 14.3191C44.1955 14.2093 44.1955 14.0996 44.1955 14.0447C43.7434 14.0447 43.1217 14.0447 42.5566 14.0447C42.0479 14.0447 41.3697 14.0447 40.9741 14.0447V14.1545H41.0306C41.2567 14.1545 41.5393 14.2093 41.5393 14.5385V17.8303C41.5393 18.1594 41.2567 18.2143 41.0306 18.2143H40.9741V18.324C41.3697 18.324 42.1044 18.324 42.6696 18.324C43.3478 18.3789 44.026 18.3789 44.4781 18.3789Z" fill="black"/>
<path d="M45.6084 14.7031C45.6084 14.2642 45.3258 14.2093 45.1563 14.2093H45.0432V14.0447C45.2693 14.0447 45.6649 14.0447 46.0605 14.0447C46.4561 14.0447 46.7387 14.0447 47.0778 14.0447C47.869 14.0447 48.6037 14.2642 48.6037 15.142C48.6037 15.6906 48.2081 16.0747 47.6995 16.2393L48.8298 17.8303C48.9994 18.1046 49.1124 18.1595 49.4515 18.2143V18.3789C49.2254 18.3789 49.0559 18.3789 48.8298 18.3789C48.6037 18.3789 48.4342 18.3789 48.2081 18.3789C47.6995 17.7205 47.3039 17.0622 46.8517 16.349H46.3996V17.7205C46.3996 18.2143 46.6257 18.2143 46.9083 18.2143H47.0213V18.3789C46.6257 18.3789 46.2866 18.3789 45.891 18.3789C45.6084 18.3789 45.2693 18.3789 44.9302 18.3789V18.2143H45.0432C45.2693 18.2143 45.4954 18.1046 45.4954 17.8851V14.7031H45.6084ZM46.3996 16.1295H46.7387C47.3604 16.1295 47.756 15.9101 47.756 15.142C47.756 14.5934 47.3604 14.2093 46.7952 14.2093C46.6257 14.2093 46.5127 14.2093 46.3996 14.2093V16.1295Z" fill="black"/>
<path d="M49.4515 18.4339C49.2254 18.4339 49.0559 18.4339 48.8298 18.4339C48.6603 18.4339 48.4342 18.4339 48.2081 18.4339C47.6995 17.7755 47.3039 17.1172 46.8517 16.404H46.4561V17.7207C46.4561 18.2144 46.6822 18.2144 46.9648 18.2144H47.1343V18.4339H47.0778C46.6822 18.4339 46.3431 18.4339 45.9475 18.4339C45.6649 18.4339 45.3258 18.4339 44.9867 18.4339V18.2144H45.0998C45.3258 18.2144 45.5519 18.1047 45.5519 17.8852V14.7032C45.5519 14.2643 45.3258 14.2643 45.0998 14.2643H44.9302V14.0449C45.1563 14.0449 45.5519 14.0449 45.9475 14.0449C46.3431 14.0449 46.6257 14.0449 46.9648 14.0449C47.756 14.0449 48.5472 14.2643 48.5472 15.197C48.5472 15.7456 48.1516 16.1296 47.643 16.2942L48.7168 17.8852C48.8863 18.1596 48.9994 18.2144 49.3385 18.2693L49.4515 18.4339ZM46.3996 16.3491H46.8517C47.2474 17.0623 47.6995 17.7755 48.1516 18.379C48.3777 18.379 48.5472 18.379 48.7733 18.379C48.9994 18.379 49.1689 18.379 49.395 18.379V18.2144C49.1124 18.1596 48.9428 18.1047 48.7733 17.8304L47.643 16.1845H47.6995C48.2081 15.9651 48.6037 15.6359 48.6037 15.0872C48.6037 14.2094 47.9256 13.99 47.0778 13.99C46.7387 13.99 46.3996 13.99 46.0605 13.99C45.6649 13.99 45.2693 13.99 45.0998 13.99V14.0997H45.2128C45.4388 14.0997 45.7214 14.1546 45.7214 14.5935V17.7755C45.7214 18.0498 45.4954 18.1596 45.2128 18.1596H45.0998V18.2693C45.4389 18.2693 45.7214 18.2693 46.004 18.2693C46.3431 18.2693 46.7387 18.2693 47.0778 18.2693V18.1596H46.9648C46.6822 18.1596 46.3996 18.1047 46.3996 17.6109V16.3491ZM46.3996 16.1845V14.2643C46.5127 14.2643 46.5692 14.2643 46.7952 14.2643C47.3604 14.2643 47.756 14.6483 47.756 15.197C47.756 15.9651 47.3604 16.1845 46.7387 16.1845H46.3996ZM46.7387 16.1296C47.3604 16.1296 47.6995 15.9102 47.6995 15.197C47.6995 14.6483 47.3604 14.3192 46.7952 14.3192C46.6257 14.3192 46.5127 14.3192 46.4561 14.3192V16.1296H46.7387Z" fill="black"/>
<path d="M53.8598 17.1719V14.8128C53.8598 14.3191 53.4642 14.2093 53.2946 14.2093H53.1251V14.0447C53.4076 14.0447 53.7467 14.0447 54.0293 14.0447C54.3119 14.0447 54.538 14.0447 54.8205 14.0447V14.2093H54.7075C54.4249 14.2093 54.1424 14.2642 54.1424 15.0323V17.8851C54.1424 18.1046 54.1424 18.324 54.1989 18.5435H53.9728L50.6384 14.9225V17.5011C50.6384 18.0497 50.7514 18.2143 51.26 18.2143H51.3731V18.3789C51.0905 18.3789 50.8079 18.3789 50.5253 18.3789C50.2428 18.3789 49.9602 18.3789 49.6211 18.3789V18.2143H49.7341C50.1862 18.2143 50.2993 17.94 50.2993 17.3914V14.758C50.2993 14.4288 50.0167 14.2093 49.7341 14.2093H49.6776V14.0447C49.9037 14.0447 50.1862 14.0447 50.4123 14.0447C50.5818 14.0447 50.8079 14.0447 50.9775 14.0447L53.8598 17.1719Z" fill="black"/>
<path d="M54.1989 18.5436H53.9163L50.6384 14.9775V17.5012C50.6384 18.0498 50.7514 18.2144 51.2035 18.2144H51.3166V18.4339C51.034 18.4339 50.7514 18.4339 50.4688 18.4339C50.1862 18.4339 49.9037 18.4339 49.5646 18.4339H49.508V18.2144H49.5646H49.7341C50.1862 18.2144 50.2993 17.9401 50.2993 17.4463V14.8129C50.2993 14.4838 50.0167 14.2643 49.7341 14.2643H49.6211V14.0449H49.6776C49.9037 14.0449 50.1862 14.0449 50.4123 14.0449C50.5818 14.0449 50.8079 14.0449 51.034 14.0449L53.8598 17.172V14.8129C53.8598 14.3192 53.5207 14.2643 53.3511 14.2643H53.1251V14.0449C53.4076 14.0449 53.7467 14.0449 54.0293 14.0449C54.3119 14.0449 54.538 14.0449 54.8205 14.0449V14.0997V14.2643H54.7075C54.4249 14.2643 54.1424 14.3192 54.1424 15.0324V17.8852C54.1989 18.1047 54.1989 18.3242 54.1989 18.5436ZM53.9728 18.4887H54.1989C54.1989 18.3242 54.1424 18.1047 54.1424 17.8852V15.0324C54.1424 14.2643 54.4814 14.2094 54.764 14.2094H54.8205V14.0997C54.538 14.0997 54.3119 14.0997 54.0293 14.0997C53.7467 14.0997 53.4642 14.0997 53.1251 14.0997V14.2094H53.2381C53.4642 14.2094 53.8033 14.3192 53.8033 14.8129V17.172L50.9209 13.99C50.7514 13.99 50.5253 13.99 50.3558 13.99C50.1297 13.99 49.8471 13.99 49.6211 13.99V14.0997H49.7341C50.0167 14.0997 50.3558 14.3192 50.3558 14.7032V17.3366C50.3558 17.8304 50.1862 18.1596 49.7341 18.1596H49.6776V18.2693C49.9602 18.2693 50.2428 18.2693 50.5253 18.2693C50.8079 18.2693 51.0905 18.2693 51.3166 18.2693V18.1596H51.26C50.7514 18.1596 50.6384 17.9401 50.6384 17.3915V14.8129L53.9728 18.4887Z" fill="black"/>
<path d="M55.8944 17.501C55.8378 17.7205 55.7248 17.8851 55.7248 17.9948C55.7248 18.1594 56.0074 18.2142 56.2335 18.2142H56.29V18.3788C56.0074 18.3788 55.7813 18.3788 55.4987 18.3788C55.2727 18.3788 55.0466 18.3788 54.8206 18.3788V18.2142H54.8771C55.1031 18.2142 55.3292 18.0496 55.4422 17.8302L56.4595 14.9225C56.516 14.703 56.6856 14.3738 56.6856 14.1544C56.9116 14.0995 57.1377 13.9349 57.2507 13.8801H57.3073H57.3638C57.3638 13.9349 57.4203 13.9898 57.4203 14.0447L58.6071 17.3364C58.6636 17.5559 58.7767 17.7753 58.8332 17.9948C58.8897 18.1594 59.0593 18.2691 59.2853 18.2691H59.3418V18.4337C59.0593 18.4337 58.7767 18.4337 58.4376 18.4337C58.0985 18.4337 57.8159 18.4337 57.4768 18.4337V18.2691H57.5333C57.7029 18.2691 57.9289 18.2691 57.9289 18.1045C57.9289 17.9948 57.8724 17.8302 57.8159 17.6656L57.5898 16.9524H56.1204L55.8944 17.501ZM56.8551 14.7579L56.2335 16.5135H57.4203L56.8551 14.7579Z" fill="black"/>
<path d="M59.3418 18.4338C59.0593 18.4338 58.7767 18.4338 58.4376 18.4338C58.0985 18.4338 57.8159 18.4338 57.4768 18.4338H57.4203V18.3789V18.1595H57.4768H57.5333C57.7029 18.1595 57.9289 18.1046 57.9289 17.9949C57.9289 17.94 57.8724 17.7754 57.8159 17.556L57.5899 16.8428H56.177L55.9509 17.5011C55.8944 17.7206 55.7813 17.8852 55.7813 17.9949C55.7813 18.1595 56.0074 18.1595 56.2335 18.1595H56.3465V18.2143V18.4338H56.29C56.0074 18.4338 55.7813 18.4338 55.4988 18.4338C55.2727 18.4338 55.0466 18.4338 54.8206 18.4338H54.7641V18.3789V18.1595H54.8206C55.0466 18.1595 55.2727 18.0497 55.3292 17.7754L56.3465 14.8677C56.4595 14.6483 56.5726 14.3191 56.6291 14.0448C56.8551 13.9899 57.0812 13.8253 57.1942 13.7704H57.2508C57.2508 13.7704 57.3073 13.7704 57.3073 13.8253C57.3073 13.8802 57.3638 13.935 57.3638 13.9899L58.5506 17.2817C58.6071 17.5011 58.7202 17.7206 58.7767 17.94C58.8332 18.1046 58.9462 18.1595 59.1723 18.1595H59.2288V18.2143L59.3418 18.4338ZM57.4768 18.3789C57.8159 18.3789 58.0985 18.3789 58.4376 18.3789C58.7202 18.3789 59.0028 18.3789 59.2853 18.3789V18.2692C59.0593 18.2692 58.8897 18.1595 58.8332 17.9949C58.7767 17.8303 58.6637 17.556 58.6071 17.3365L57.4203 14.0448C57.4203 13.9899 57.3638 13.935 57.3638 13.8802C57.3638 13.8802 57.3638 13.8802 57.3073 13.8802C57.1942 13.935 56.9117 14.0996 56.7421 14.1545C56.6856 14.3739 56.5726 14.7031 56.516 14.9226L55.4988 17.8303C55.3857 18.1046 55.1597 18.2692 54.9336 18.2692V18.3789C55.1597 18.3789 55.3857 18.3789 55.6118 18.3789C55.8379 18.3789 56.1204 18.3789 56.3465 18.3789V18.2692H56.29C56.0639 18.2692 55.7813 18.2692 55.7813 17.9949C55.7813 17.8852 55.8379 17.7206 55.9509 17.5011H56.0074H55.9509L56.177 16.8428H57.7029L57.9855 17.6108C58.042 17.8303 58.0985 17.9949 58.0985 18.0497C58.0985 18.2692 57.8159 18.2692 57.6464 18.2692H57.5899V18.3789H57.4768ZM56.177 16.5685L56.7986 14.758L57.4203 16.5685H56.177ZM56.2335 16.5136H57.3638L56.7986 14.8128L56.2335 16.5136Z" fill="black"/>
<path d="M59.6245 14.3189C59.1158 14.3189 59.1158 14.4286 59.0028 14.8675H58.8333C58.8333 14.7029 58.8898 14.5383 58.8898 14.3189C58.8898 14.1543 58.9463 13.9897 58.9463 13.7703H59.1158C59.1723 13.9348 59.3419 13.9348 59.5114 13.9348H62.8459C63.0154 13.9348 63.185 13.9348 63.185 13.7154H63.3545C63.3545 13.88 63.298 14.0446 63.298 14.2092C63.298 14.3737 63.298 14.5383 63.298 14.7029L63.1285 14.7578C63.1285 14.5383 63.0719 14.1543 62.6763 14.1543H61.6025V17.5009C61.6025 17.9947 61.8286 18.0496 62.1677 18.0496H62.2807V18.2141C62.0547 18.2141 61.6025 18.2141 61.2069 18.2141C60.8113 18.2141 60.3592 18.2141 60.1331 18.2141V18.0496H60.2462C60.5852 18.0496 60.8113 17.9947 60.8113 17.5009V14.1543H59.6245V14.3189Z" fill="black"/>
<path d="M62.1677 18.4337C61.9416 18.4337 61.4895 18.4337 61.0938 18.4337C60.6982 18.4337 60.2461 18.4337 60.02 18.4337V18.2143H60.1331C60.4722 18.2143 60.6417 18.2143 60.6417 17.7205V14.3739H59.6244H60.6982V17.7754C60.6982 18.2691 60.4722 18.324 60.1331 18.324H60.02V18.4337C60.3026 18.4337 60.6982 18.4337 61.0938 18.4337C61.4329 18.3788 61.8851 18.3788 62.1677 18.4337V18.2691H62.0546C61.7155 18.2691 61.4895 18.2143 61.4895 17.7205V14.3739H62.5633C63.0154 14.3739 63.0719 14.7579 63.0719 14.9774L63.1849 14.9225C63.1849 14.7579 63.1849 14.5933 63.1849 14.4287C63.1849 14.2641 63.2415 14.0995 63.2415 13.935H63.1284C63.0719 14.0995 62.9024 14.1544 62.7328 14.0995H59.3984C59.3984 14.0995 59.3984 14.0995 59.3418 14.0995C59.1723 14.0995 59.0028 14.0995 58.9462 13.935H58.8332C58.8332 14.0995 58.8332 14.2641 58.7767 14.4287C58.7767 14.5933 58.7202 14.7579 58.7202 14.9225H58.8332C58.9462 14.4836 58.9462 14.319 59.4549 14.3739C58.9462 14.3739 59.0027 14.4836 58.8897 14.9225H58.7767V14.8676C58.7767 14.703 58.8332 14.5385 58.8332 14.319C58.8332 14.1544 58.8897 13.9898 58.8897 13.7704V13.7155H58.9462H59.1158C59.1723 13.8801 59.2853 13.8801 59.4549 13.8801C59.4549 13.8801 59.4549 13.8801 59.5114 13.8801H62.8458C63.0154 13.8801 63.1284 13.8801 63.1849 13.7155V13.6606H63.2415L63.411 13.7155C63.411 13.8801 63.3545 14.0447 63.3545 14.2093C63.3545 14.3739 63.3545 14.5384 63.3545 14.703L63.1284 14.7579V14.703C63.1284 14.4836 63.0719 14.0995 62.6763 14.0995H61.659V17.3913C61.659 17.8851 61.8851 17.8851 62.1677 17.8851H62.3372L62.1677 18.4337Z" fill="black"/>
<path d="M63.5805 18.2144H63.6935C63.9196 18.2144 64.1456 18.1596 64.1456 17.8304V14.5386C64.1456 14.2094 63.9196 14.1546 63.6935 14.1546H63.5805V13.99C63.8065 13.99 64.2021 13.99 64.5412 13.99C64.8803 13.99 65.276 13.99 65.5585 13.99V14.1546H65.4455C65.2194 14.1546 64.9369 14.2094 64.9369 14.5386V17.8304C64.9369 18.1596 65.1629 18.2144 65.4455 18.2144H65.5585V18.379C65.2194 18.379 64.8803 18.379 64.5412 18.379C64.2021 18.379 63.8631 18.379 63.5805 18.379V18.2144Z" fill="black"/>
<path d="M65.5585 18.4338C65.2194 18.4338 64.8803 18.4338 64.5412 18.4338C64.2021 18.4338 63.8631 18.4338 63.5805 18.4338V18.2692H63.6935C63.9196 18.2692 64.1456 18.2692 64.1456 17.94V14.6482C64.1456 14.3191 63.9196 14.3191 63.6935 14.3191H63.5805V14.0996C63.8065 14.0996 64.2021 14.0996 64.5412 14.0996C64.8803 14.0996 65.2759 14.0996 65.5585 14.0996V14.2642H65.4455C65.2194 14.2642 64.9934 14.2642 64.9934 14.5934V17.8851C64.9934 18.2143 65.2194 18.2143 65.4455 18.2143H65.5585V18.4338ZM65.502 18.3789V18.2692H65.4455C65.2194 18.2692 64.9369 18.2143 64.9369 17.8851V14.5934C64.9369 14.2642 65.2194 14.2093 65.4455 14.2093H65.502V14.0996C65.2194 14.0996 64.8238 14.0996 64.5412 14.0996C64.2587 14.0996 63.8631 14.0996 63.637 14.0996V14.2093H63.6935C63.9196 14.2093 64.2021 14.2642 64.2021 14.5934V17.8851C64.2021 18.2143 63.9196 18.2692 63.6935 18.2692H63.637V18.3789C63.8631 18.3789 64.2587 18.3789 64.5412 18.3789C64.8238 18.3789 65.2194 18.3789 65.502 18.3789Z" fill="black"/>
<path d="M68.1583 13.935C69.5147 13.935 70.645 14.7579 70.645 16.1295C70.645 17.5559 69.5712 18.5435 68.2148 18.5435C66.8584 18.5435 65.7846 17.6657 65.7846 16.2941C65.7281 14.9225 66.8019 13.935 68.1583 13.935ZM68.2148 18.2143C69.4582 18.2143 69.6842 17.117 69.6842 16.2392C69.6842 15.3066 69.1756 14.2093 68.1018 14.2093C66.9715 14.2093 66.6324 15.1968 66.6324 16.0198C66.6324 17.1719 67.1975 18.2143 68.2148 18.2143Z" fill="black"/>
<path d="M65.7281 16.2394C65.7281 14.9226 66.8019 13.8802 68.1583 13.8802V13.9351V13.99C66.8019 13.99 65.7847 14.9775 65.7281 16.2394C65.7847 17.5561 66.8019 18.4887 68.1583 18.4887C69.5147 18.4887 70.5885 17.5561 70.5885 16.1296C70.5885 14.8129 69.5147 13.99 68.1583 13.99V13.9351V13.8802C69.5712 13.8802 70.645 14.7032 70.645 16.0748C70.645 17.5561 69.5712 18.4887 68.1583 18.4887C66.8019 18.5436 65.7281 17.6109 65.7281 16.2394ZM66.6324 16.0199C66.6324 15.197 66.9715 14.1546 68.1583 14.1546C69.2321 14.1546 69.7973 15.3067 69.7973 16.2394C69.7973 17.172 69.5712 18.2693 68.2714 18.2693C69.5147 18.2693 69.7408 17.2269 69.7408 16.2942C69.7408 15.3615 69.2321 14.2643 68.1583 14.2643C67.028 14.2643 66.7454 15.197 66.6889 16.0748C66.6889 17.172 67.1975 18.2693 68.2148 18.2693C67.141 18.2693 66.6324 17.172 66.6324 16.0199Z" fill="black"/>
<path d="M74.9967 17.1719V14.8128C74.9967 14.3191 74.6011 14.2093 74.4315 14.2093H74.3185V14.0447C74.6011 14.0447 74.9402 14.0447 75.2227 14.0447C75.5053 14.0447 75.7314 14.0447 76.014 14.0447V14.2093H75.9009C75.6184 14.2093 75.3358 14.2642 75.3358 15.0323V17.8851C75.3358 18.1046 75.3358 18.324 75.3923 18.5435H75.1662L71.8318 14.9225V17.5011C71.8318 18.0497 71.9448 18.2143 72.4535 18.2143H72.5665V18.3789C72.2839 18.3789 72.0013 18.3789 71.7188 18.3789C71.4362 18.3789 71.1536 18.3789 70.8145 18.3789V18.2143H70.9275C71.3797 18.2143 71.4927 17.94 71.4927 17.3914V14.758C71.4927 14.4288 71.2101 14.2093 70.9275 14.2093H70.871V14.0447C71.0971 14.0447 71.3797 14.0447 71.6057 14.0447C71.7753 14.0447 72.0013 14.0447 72.1709 14.0447L74.9967 17.1719Z" fill="black"/>
<path d="M75.3358 18.5436H75.0532L71.7753 14.9775V17.5012C71.7753 18.0498 71.8883 18.2144 72.3404 18.2144H72.4535V18.2693V18.4887H72.397C72.1144 18.4887 71.8318 18.4887 71.5492 18.4887C71.2666 18.4887 70.9841 18.4887 70.645 18.4887V18.2693H70.758C71.2101 18.2693 71.3231 17.995 71.3231 17.5012V14.8678C71.3231 14.5386 71.0406 14.3192 70.758 14.3192H70.645V14.0997C70.871 14.0997 71.1536 14.0997 71.3797 14.0997C71.5492 14.0997 71.7753 14.0997 72.0013 14.0997L74.8271 17.2269V14.8129C74.8271 14.3192 74.488 14.2643 74.3185 14.2643H74.1489V14.0449H74.2055C74.488 14.0449 74.8271 14.0449 75.1097 14.0449C75.3923 14.0449 75.6184 14.0449 75.9009 14.0449V14.2643H75.7879C75.5053 14.2643 75.2228 14.3192 75.2228 15.0324V17.8852C75.3358 18.1047 75.3358 18.3242 75.3358 18.5436ZM75.1097 18.4887H75.3358C75.2793 18.3242 75.2793 18.1047 75.2793 17.8852V15.0324C75.2793 14.2643 75.6184 14.2094 75.9009 14.2094H75.9575V14.0997C75.6749 14.0997 75.4488 14.0997 75.1662 14.0997C74.8837 14.0997 74.6011 14.0997 74.262 14.0997V14.2094H74.375C74.6011 14.2094 74.9402 14.3192 74.9402 14.8129V17.172L72.0579 13.99C71.8883 13.99 71.6622 13.99 71.4927 13.99C71.2666 13.99 70.9841 13.99 70.758 13.99V14.0997H70.8145C71.0971 14.0997 71.4362 14.3192 71.4362 14.7032V17.3366C71.4362 17.8304 71.2666 18.1596 70.8145 18.1596H70.758V18.2693C71.0406 18.2693 71.3231 18.2693 71.6057 18.2693C71.8883 18.2693 72.1709 18.2693 72.397 18.2693V18.1596H72.3404C71.8318 18.1596 71.7188 17.9401 71.7188 17.3915V14.8129L75.1097 18.4887Z" fill="black"/>
<path d="M77.0314 17.501C76.9748 17.7205 76.8618 17.8851 76.8618 17.9948C76.8618 18.1594 77.1444 18.2142 77.3704 18.2142H77.427V18.3788C77.1444 18.3788 76.9183 18.3788 76.6357 18.3788C76.4097 18.3788 76.1836 18.3788 75.9576 18.3788V18.2142H76.0141C76.2401 18.2142 76.4662 18.0496 76.5792 17.8302L77.5965 14.9225C77.653 14.703 77.8226 14.3738 77.8226 14.1544C78.0486 14.0995 78.2747 13.9349 78.3877 13.8801H78.4443H78.5008C78.5008 13.9349 78.5573 13.9898 78.5573 14.0447L79.7441 17.3364C79.8006 17.5559 79.9137 17.7753 79.9702 17.9948C80.0267 18.1594 80.1962 18.2691 80.4223 18.2691H80.4788V18.4337C80.1962 18.4337 79.9137 18.4337 79.5746 18.4337C79.2355 18.4337 78.9529 18.4337 78.6138 18.4337V18.2691H78.6703C78.8399 18.2691 79.0659 18.2691 79.0659 18.1045C79.0659 17.9948 79.0094 17.8302 78.9529 17.6656L78.7268 16.9524H77.2574L77.0314 17.501ZM77.9921 14.7579L77.3704 16.5135H78.5573L77.9921 14.7579Z" fill="black"/>
<path d="M80.4788 18.4338C80.1962 18.4338 79.9137 18.4338 79.5746 18.4338C79.2355 18.4338 78.9529 18.4338 78.6138 18.4338H78.5573V18.3789V18.1595H78.6138C78.7834 18.1595 79.0094 18.1046 79.0094 17.9949C79.0094 17.94 78.9529 17.7754 78.8964 17.556L78.6703 16.8428H77.2574L77.0314 17.5011C76.9748 17.7206 76.8618 17.8852 76.9183 17.9949C76.9183 18.1595 77.1444 18.2143 77.3704 18.2143H77.4835V18.4338H77.427C77.1444 18.4338 76.9183 18.4338 76.6357 18.4338C76.4097 18.4338 76.1836 18.4338 75.9576 18.4338V18.3789V18.1595H76.0141C76.2401 18.1595 76.4662 17.9949 76.5792 17.7754L77.5965 14.8677C77.653 14.6483 77.8226 14.3191 77.8791 14.0448C78.1052 13.9899 78.3312 13.8253 78.4443 13.7704H78.5008C78.5008 13.7704 78.5573 13.7704 78.5573 13.8253C78.5573 13.8802 78.6138 13.935 78.6138 13.9899L79.8006 17.2817C79.8571 17.5011 79.9702 17.7206 80.0267 17.94C80.0832 18.1046 80.1962 18.1595 80.4223 18.1595H80.4788V18.4338ZM78.6703 18.3789C79.0094 18.3789 79.292 18.3789 79.6311 18.3789C79.9137 18.3789 80.1962 18.3789 80.4788 18.3789V18.2692C80.2528 18.2692 80.0832 18.1595 80.0267 17.9949C79.9137 17.8303 79.8571 17.556 79.8006 17.3365L78.6138 14.0448C78.6138 13.9899 78.5573 13.935 78.5573 13.8802C78.5573 13.8802 78.5573 13.8802 78.5008 13.8802C78.3877 13.935 78.1052 14.0996 77.9356 14.1545C77.8791 14.3739 77.7661 14.7031 77.7095 14.9226L76.6923 17.8303C76.5792 18.1046 76.3532 18.2692 76.1271 18.2692V18.3789C76.3532 18.3789 76.5792 18.3789 76.8053 18.3789C77.0314 18.3789 77.3139 18.3789 77.54 18.3789V18.2692H77.4835C77.2574 18.2692 76.9748 18.2692 76.9748 17.9949C76.9748 17.8852 77.0314 17.7206 77.1444 17.5011L77.3704 16.8428H78.8964L79.179 17.6108C79.2355 17.8303 79.292 17.9949 79.292 18.0497C79.292 18.2692 79.0094 18.2692 78.8399 18.2692H78.7833V18.3789H78.6703ZM77.3139 16.5136L77.9356 14.7031L78.5573 16.5136H77.3139ZM77.427 16.4587H78.5573L77.9921 14.758L77.427 16.4587Z" fill="black"/>
<path d="M82.1178 17.8303C82.1178 18.1046 82.2873 18.1595 82.5134 18.1595C82.796 18.1595 83.0785 18.1595 83.3611 18.1595C83.6437 18.1046 83.8698 17.9949 83.9828 17.8303C84.0958 17.6657 84.1523 17.5012 84.2089 17.3914H84.3784C84.3219 17.7755 84.2089 18.1046 84.1523 18.4338C83.5872 18.4338 83.022 18.4338 82.4569 18.4338C81.8917 18.4338 81.3265 18.4338 80.7614 18.4338V18.2692H80.8744C81.1005 18.2692 81.3831 18.2144 81.3831 17.8303V14.5934C81.3831 14.2643 81.157 14.2094 80.8744 14.2094H80.7614V14.0448C81.1005 14.0448 81.4396 14.0448 81.7787 14.0448C82.1178 14.0448 82.4569 14.0448 82.7394 14.0448V14.2094H82.5699C82.3438 14.2094 82.1178 14.2094 82.1178 14.5386V17.8303Z" fill="black"/>
<path d="M84.1524 18.4338C83.5872 18.4338 83.022 18.4338 82.4569 18.4338C81.8917 18.4338 81.3266 18.4338 80.7614 18.4338V18.2144H80.8744C81.1005 18.2144 81.3266 18.2144 81.3266 17.8303V14.5934C81.3266 14.2643 81.1005 14.2643 80.8744 14.2643H80.7614V14.0448C81.1005 14.0448 81.4396 14.0448 81.7787 14.0448C82.1178 14.0448 82.4569 14.0448 82.7395 14.0448V14.2643H82.5699C82.3439 14.2643 82.1743 14.2643 82.1743 14.5934V17.8303C82.1743 18.0498 82.3439 18.1046 82.5134 18.1595C82.6264 18.1595 82.7395 18.1595 82.8525 18.1595C83.0221 18.1595 83.1916 18.1595 83.3611 18.1595C83.6437 18.1046 83.8698 17.9949 83.9828 17.8303C84.0959 17.7206 84.1524 17.5012 84.1524 17.3914H84.3784V17.4463C84.3219 17.7206 84.2089 18.0498 84.1524 18.4338ZM84.0959 18.379C84.1524 18.0498 84.2654 17.7206 84.3219 17.3914H84.2089C84.1524 17.556 84.0959 17.7206 83.9828 17.8303C83.8698 17.9949 83.6437 18.1595 83.3611 18.1595C83.1916 18.1595 83.0221 18.1595 82.8525 18.1595C82.7395 18.1595 82.6264 18.1595 82.5134 18.1595C82.2873 18.1595 82.1178 18.0498 82.1178 17.7755V14.5386C82.1178 14.2094 82.3439 14.1545 82.5699 14.1545H82.683V14.0448C82.3439 14.0448 82.0613 14.0448 81.7222 14.0448C81.3831 14.0448 81.044 14.0448 80.7049 14.0448V14.1545H80.7614C80.9875 14.1545 81.2701 14.2094 81.2701 14.5386V17.7755C81.2701 18.1595 80.9875 18.2144 80.7614 18.2144H80.7049V18.3241C81.2701 18.3241 81.8352 18.3241 82.4004 18.3241C82.9655 18.379 83.5307 18.379 84.0959 18.379Z" fill="black"/>
<path d="M84.2654 13.8255C84.661 13.8255 84.9436 14.0998 84.9436 14.4839C84.9436 14.8679 84.661 15.1422 84.2654 15.1422C83.8698 15.1422 83.5872 14.8679 83.5872 14.4839C83.5872 14.0998 83.9263 13.8255 84.2654 13.8255ZM84.2654 15.0325C84.548 15.0325 84.8306 14.7582 84.8306 14.4839C84.8306 14.2095 84.6045 13.9352 84.2654 13.9352C83.9828 13.9352 83.7002 14.2095 83.7002 14.4839C83.7002 14.7582 83.9828 15.0325 84.2654 15.0325ZM83.9263 14.8679C83.9828 14.813 84.0393 14.813 84.0393 14.7582V14.2644C84.0393 14.2095 84.0393 14.1547 83.9263 14.1547V14.0998H84.2654C84.3784 14.0998 84.4914 14.1547 84.4914 14.2644C84.4914 14.3741 84.4349 14.429 84.3219 14.4839L84.4349 14.6484C84.4914 14.7033 84.548 14.7582 84.6045 14.813H84.4914C84.4349 14.813 84.3784 14.7033 84.2654 14.4839H84.2089V14.7033C84.2089 14.7582 84.2089 14.7582 84.3219 14.7582V14.813H83.9263V14.8679ZM84.2089 14.5387H84.2654C84.3784 14.5387 84.3784 14.4839 84.3784 14.3741C84.3784 14.2644 84.3219 14.2095 84.2654 14.2095H84.2089V14.5387Z" fill="black"/>
<path d="M11.4162 21.9451C5.14295 22 0 17.0623 0 11.0823C0 4.55362 5.14295 0 11.4162 0H14.3551C20.5153 0 26.1669 4.55362 26.1669 11.0823C26.1669 17.0623 20.5153 22 14.3551 22H11.4162V21.9451ZM11.4162 0.932668C5.70811 0.932668 1.0738 5.43142 1.0738 10.9726C1.0738 16.5137 5.70811 21.0125 11.4162 21.0125C17.1243 21.0125 21.7586 16.5137 21.7586 10.9726C21.8152 5.43142 17.1809 0.932668 11.4162 0.932668ZM9.09907 16.8978V4.99252C6.61237 5.92519 4.86037 8.22943 4.86037 10.9726C4.86037 13.6608 6.61237 16.02 9.09907 16.8978ZM18.0286 10.9726C18.0286 8.22943 16.2766 5.92519 13.7899 5.04738V16.9526C16.2766 16.02 18.0286 13.6608 18.0286 10.9726Z" fill="#004A98"/>
</svg>