<svg xmlns:xlink="http://www.w3.org/1999/xlink" xmlns="http://www.w3.org/2000/svg" width="115" height="15" viewBox="0 0 115 15" fill="none">
<g clip-path="url(#clip0)">
<path fill-rule="evenodd" clip-rule="evenodd" d="M21.9 10.5C21.9 13 19.9 14.8 17.3 14.8H11.2C11.1 14.8 11.1 14.7 11.1 14.7V0.1C11.1 0 11.2 0 11.2 0H16.9C19.4 0 21.4 1.7 21.4 4.2C21.4 5.4 20.9 6.4 20 7.2C21.2 7.8 22 9.1 21.9 10.5ZM14 2.8V5.8C14 5.9 14.1 5.9 14.1 5.9H16.9C17.8 5.9 18.5 5.2 18.5 4.3C18.5 4.2 18.5 4.2 18.5 4.1C18.4 3.3 17.7 2.6 16.9 2.6L14 2.8C14.1 2.7 14 2.8 14 2.8ZM19 10.2C18.9 9.3 18.2 8.6 17.3 8.6H14V12.1H17.3C18.2 12.1 19 11.4 19 10.4C19.1 10.4 19 10.3 19 10.2Z" fill="#004B87"/>
<path fill-rule="evenodd" clip-rule="evenodd" d="M32.3 12.2H26.6C26.6 12.2 26.5 12.2 26.5 12.3L25.7 14.8L25.6 14.9H22.7C22.6 14.9 22.6 14.9 22.6 14.8L27.7 0.199976L27.8 0.0999756H31.2C31.2 0.0999756 31.3 0.0999756 31.3 0.199976L36.4 14.8C36.4 14.9 36.4 14.9 36.3 14.9H33.4C33.4 14.9 33.3 14.9 33.3 14.8L32.3 12.2C32.4 12.2 32.3 12.2 32.3 12.2ZM31.4 9.29998L29.5 3.69998C29.5 3.59998 29.4 3.59998 29.4 3.59998C29.4 3.59998 29.3 3.59998 29.3 3.69998L27.5 9.29998C27.5 9.39998 27.5 9.39997 27.6 9.39997H31.3C31.4 9.39997 31.4 9.39998 31.4 9.29998Z" fill="#004B87"/>
<path fill-rule="evenodd" clip-rule="evenodd" d="M49.2 0.1V14.7C49.2 14.8 49.1 14.8 49.1 14.8H47.1C47.1 14.8 47 14.8 47 14.7L40.7 5.7V14.6C40.7 14.7 40.6 14.7 40.6 14.7H37.9C37.8 14.7 37.8 14.6 37.8 14.6V0.1C37.8 0 37.9 0 37.9 0H39.9C39.9 0 40 0 40 0.1L46.3 9.1V0.1C46.3 0 46.4 0 46.4 0H49.1C49.2 0 49.2 0.1 49.2 0.1Z" fill="#004B87"/>
<path fill-rule="evenodd" clip-rule="evenodd" d="M59.8 14.8L57.1 10.2C57.1 10.1 57 10.1 56.9 10.2L54.2 14.8L54.1 14.9H51.1C51 14.9 51 14.8 51 14.8C51 14.8 51 14.8 51 14.7L55.3 7.3V7.2L51.2 0.2C51.2 0.1 51.2 0.1 51.2 0C51.2 0 51.2 0 51.3 0H54.3C54.3 0 54.4 0 54.4 0.1L56.9 4.3C56.9 4.4 57 4.4 57.1 4.3L59.6 0.1L59.7 0H62.7C62.8 0 62.8 0.1 62.8 0.1C62.8 0.1 62.8 0.1 62.8 0.2L58.7 7.2V7.3L63.1 14.7C63.1 14.8 63.1 14.8 63.1 14.9C63.1 14.9 63.1 14.9 63 14.9H60C59.9 14.9 59.8 14.8 59.8 14.8Z" fill="#004B87"/>
<path fill-rule="evenodd" clip-rule="evenodd" d="M3.6 12C3.2 11.9 2.9 11.6 2.9 11.2V8.8C2.9 8.7 3 8.7 3 8.7H8.3C8.4 8.7 8.4 8.6 8.4 8.6V6.1C8.4 6 8.4 6 8.3 6H3C2.9 6 2.9 6 2.9 5.9V2.9C2.9 2.8 3 2.8 3 2.8H8.9C9 2.8 9 2.8 9 2.7V0.1C9 0 8.9 0 8.9 0H0.1C0 0 0 0.1 0 0.1V12C0 13.5 1.2 14.8 2.7 14.8H9V12H3.6Z" fill="#004B87"/>
<path d="M86.1 2.40002H83.9H81.7H81.4V12.4H83.8V9.60002H86.2C87.3 9.60002 88.3 9.20002 89 8.50002C89.6 7.80002 90 6.90002 89.9 6.00002C89.9 3.60002 88 2.40002 86.1 2.40002ZM87.5 6.10002C87.5 6.80002 87 7.40002 86.2 7.50002H86.1H83.7V4.70002H86.1C86.8 4.70002 87.4 5.20002 87.5 5.90002C87.5 6.00002 87.5 6.00002 87.5 6.10002Z" fill="#004B87"/>
<path d="M96.5 2.40002L92 12.4H94.6L95.4 10.6H99.9L100.7 12.4H103.3L98.8 2.40002H96.5ZM98.9 8.40002H96.3L97.6 5.50002L98.9 8.40002Z" fill="#004B87"/>
<path d="M112 2.40002L109.7 6.00002L107.4 2.40002H104.8V2.90002L108.5 8.30002V12.4H110.8V8.30002L114.6 2.90002V2.40002H112Z" fill="#004B87"/>
<path d="M67.9 10.4H73.9V4.40002L67.9 10.4Z" fill="#24A1DC"/>
</g>
<defs>
<clipPath id="clip0">
<rect width="114.6" height="14.9" fill="white"/>
</clipPath>
</defs>
</svg>