<svg xmlns:xlink="http://www.w3.org/1999/xlink" xmlns="http://www.w3.org/2000/svg" width="71" height="27" viewBox="0 0 71 27" fill="none">
<path d="M11.067 5.96553C11.8664 5.7011 12.7191 5.56007 13.6038 5.56007C17.4764 5.56007 20.7095 8.28898 21.4485 11.9169L26.9376 10.8063C25.6799 4.63985 20.1908 0 13.6073 0C12.0974 0 10.6514 0.243275 9.29417 0.694568L11.067 5.96553Z" fill="#FFCB05"/>
<path d="M4.59027 23.6152L8.30299 19.4513C6.64737 17.9952 5.60283 15.8691 5.60283 13.4999C5.60283 11.1341 6.64737 9.00808 8.30299 7.55548L4.59027 3.3916C1.77642 5.86314 0 9.47701 0 13.4999C0 17.5262 1.77642 21.1401 4.59027 23.6152Z" fill="#00A4E0"/>
<path d="M21.4485 15.0936C20.706 18.7215 17.4764 21.4434 13.6074 21.4434C12.7192 21.4434 11.8629 21.3024 11.0671 21.0344L9.29069 26.3089C10.6479 26.7567 12.0974 27 13.6074 27C20.1837 27 25.6728 22.3671 26.9377 16.2112L21.4485 15.0936Z" fill="#EF4123"/>
<path d="M31.7376 19.6279C31.5564 19.3388 31.3148 18.8769 31.1655 18.5349C30.2951 16.5323 30.256 14.4592 30.9879 12.4706C31.7944 10.2882 33.3363 8.62055 35.3295 7.76733C37.8342 6.69903 40.6019 6.90705 43.0036 8.32087C44.5278 9.18819 45.6079 10.528 46.4286 12.4248C46.5316 12.6681 46.624 12.9255 46.7163 13.1476L31.7376 19.6279ZM36.74 10.9828C34.96 11.7408 34.0433 13.3979 34.2316 15.3371L41.7637 12.1181C40.4704 10.6126 38.7864 10.1119 36.74 10.9828ZM42.7052 17.9849C42.7016 17.9849 42.7016 17.9884 42.7016 17.9884L42.5453 17.8826C42.0941 18.6054 41.3942 19.1942 40.5095 19.575C38.8255 20.3013 37.2658 20.1144 36.1431 19.1378L36.04 19.2929C36.04 19.2929 36.04 19.2894 36.0365 19.2894L34.1251 22.1276C34.6011 22.4555 35.1092 22.7305 35.6421 22.9526C37.7525 23.8235 39.9126 23.7812 42.0408 22.8645C43.5792 22.2016 44.7871 21.1933 45.6114 19.9134L42.7052 17.9849Z" fill="black"/>
<path d="M51.9497 3.59277V19.3669L54.4224 20.3611L53.0191 23.6118L50.2905 22.4836C49.6794 22.2192 49.2602 21.8172 48.9475 21.3624C48.6455 20.9006 48.4217 20.2624 48.4217 19.4092V3.59277H51.9497Z" fill="black"/>
<path d="M58.3519 15.3474C58.3519 14.0041 58.9523 12.7983 59.8974 11.9804L57.3607 9.17389C55.6411 10.6829 54.5575 12.8865 54.5575 15.3404C54.5539 17.7978 55.6375 20.0049 57.3536 21.5139L59.8867 18.7074C58.9452 17.886 58.3519 16.6872 58.3519 15.3474Z" fill="black"/>
<path d="M62.8569 19.8216C62.3595 19.8216 61.8763 19.737 61.4287 19.5889L60.2171 23.164C61.0449 23.439 61.9296 23.5906 62.8533 23.5906C66.8681 23.5941 70.2184 20.7665 70.9965 17.0116L67.2731 16.2571C66.8503 18.2949 65.0348 19.8251 62.8569 19.8216Z" fill="black"/>
<path d="M62.8675 7.10785C61.9474 7.10785 61.0627 7.25593 60.2349 7.52741L61.4358 11.1025C61.887 10.9544 62.3666 10.8733 62.864 10.8733C65.0454 10.8769 66.8645 12.4141 67.2766 14.459L71 13.7116C70.2361 9.9496 66.8858 7.11137 62.8675 7.10785Z" fill="black"/>
</svg>