<svg xmlns:xlink="http://www.w3.org/1999/xlink" xmlns="http://www.w3.org/2000/svg" width="151" height="32" viewBox="0 0 151 32" fill="none">
<g clip-path="url(#clip0)">
<path d="M45.89 8.9817C45.89 10.9559 44.3346 12.397 42.4202 12.397C40.5059 12.397 38.9504 10.9361 38.9504 8.9817C38.9504 6.9878 40.5059 5.56641 42.4202 5.56641C44.3346 5.56641 45.89 6.9878 45.89 8.9817ZM44.3745 8.9817C44.3745 7.75772 43.4771 6.90883 42.4202 6.90883C41.3633 6.90883 40.466 7.75772 40.466 8.9817C40.466 10.2057 41.3633 11.0546 42.4202 11.0546C43.4771 11.0546 44.3745 10.1859 44.3745 8.9817Z" fill="#777777"/>
<path d="M53.3681 8.98141C53.3681 10.9556 51.8126 12.3967 49.8983 12.3967C47.9839 12.3967 46.4285 10.9358 46.4285 8.98141C46.4285 6.98751 47.9839 5.56612 49.8983 5.56612C51.8126 5.54638 53.3681 6.98751 53.3681 8.98141ZM51.8525 8.98141C51.8525 7.75743 50.9552 6.90855 49.8983 6.90855C48.8414 6.90855 47.944 7.75743 47.944 8.98141C47.944 10.2054 48.8414 11.0543 49.8983 11.0543C50.9552 11.0543 51.8525 10.1856 51.8525 8.98141Z" fill="#777777"/>
<path d="M60.547 5.76306V11.9027C60.547 14.4296 59.0314 15.4562 57.2566 15.4562C55.5816 15.4562 54.5646 14.3506 54.1857 13.4425L55.5018 12.8898C55.7411 13.4425 56.3194 14.1137 57.2367 14.1137C58.3734 14.1137 59.0912 13.4228 59.0912 12.1001V11.6263H59.0314C58.6924 12.0409 58.0344 12.3962 57.2168 12.3962C55.4819 12.3962 53.9065 10.8959 53.9065 8.98093C53.9065 7.04626 55.4819 5.5459 57.2168 5.5459C58.0344 5.5459 58.6924 5.90125 59.0314 6.31582H59.0912V5.76306H60.547ZM59.2109 8.98093C59.2109 7.77669 58.3933 6.88832 57.3563 6.88832C56.2995 6.88832 55.422 7.77669 55.422 8.98093C55.422 10.1654 56.2995 11.0538 57.3563 11.0538C58.3933 11.0538 59.2109 10.1852 59.2109 8.98093Z" fill="#777777"/>
<path d="M62.92 2.15088V12.1796H61.4443V2.15088H62.92Z" fill="#777777"/>
<path d="M68.703 10.107L69.8795 10.8769C69.5006 11.4297 68.5833 12.397 66.988 12.397C65.0138 12.397 63.5581 10.8966 63.5581 8.9817C63.5581 6.94832 65.0338 5.56641 66.8285 5.56641C68.6232 5.56641 69.5006 6.9878 69.7798 7.73798L69.9393 8.13281L65.3129 10.028C65.6719 10.719 66.2103 11.0743 66.988 11.0743C67.7657 11.0546 68.3041 10.6795 68.703 10.107ZM65.0736 8.86325L68.1646 7.59979C67.9851 7.16547 67.4865 6.86935 66.8883 6.86935C66.1106 6.86935 65.0338 7.54056 65.0736 8.86325Z" fill="#777777"/>
<path d="M33.3271 8.0929V6.63203H38.2725C38.3124 6.88867 38.3523 7.18479 38.3523 7.50065C38.3523 8.58644 38.0532 9.94861 37.076 10.8962C36.1388 11.8635 34.9224 12.3966 33.3271 12.3966C30.3757 12.3966 27.8831 10.0078 27.8831 7.08608C27.8831 4.16433 30.3757 1.75586 33.3271 1.75586C34.9622 1.75586 36.1388 2.38759 37.0162 3.21673L35.9793 4.2433C35.3411 3.65105 34.5036 3.19699 33.3271 3.19699C31.1734 3.19699 29.4784 4.91451 29.4784 7.06634C29.4784 9.21817 31.1734 10.9357 33.3271 10.9357C34.7229 10.9357 35.5206 10.3829 36.0391 9.86964C36.4579 9.45507 36.7171 8.86282 36.8367 8.07316L33.3271 8.0929Z" fill="#777777"/>
<path d="M75.9218 12.8899C75.5429 12.8899 75.164 12.8307 74.8051 12.732C74.4461 12.6135 74.1071 12.4556 73.808 12.2384C73.5089 12.0213 73.2297 11.7449 73.0103 11.429C72.771 11.1132 72.5916 10.7183 72.4719 10.284L73.9077 9.7115C73.9675 9.9484 74.0672 10.1853 74.1869 10.4025C74.3065 10.6196 74.4461 10.7973 74.6256 10.9552C74.8051 11.1132 74.9845 11.2316 75.2039 11.3303C75.4232 11.429 75.6625 11.4685 75.9218 11.4685C76.1411 11.4685 76.3605 11.4488 76.5599 11.3895C76.7593 11.3303 76.9388 11.2513 77.0983 11.1329C77.2578 11.0144 77.3775 10.8763 77.4573 10.7183C77.557 10.5604 77.5968 10.363 77.5968 10.1458C77.5968 9.9484 77.557 9.77072 77.4971 9.61279C77.4174 9.45486 77.3177 9.31667 77.1581 9.17848C76.9986 9.04029 76.7992 8.92184 76.5599 8.80339C76.3206 8.68494 76.0215 8.56649 75.6625 8.44804L75.0643 8.23088C74.8051 8.15192 74.5458 8.03347 74.2666 7.87553C73.9875 7.73734 73.7482 7.55967 73.5288 7.34251C73.3095 7.1451 73.13 6.88846 72.9904 6.61207C72.8508 6.33569 72.791 6.00009 72.791 5.625C72.791 5.26965 72.8707 4.93404 73.0103 4.63792C73.1499 4.32205 73.3693 4.04567 73.6285 3.80877C73.8878 3.57187 74.2068 3.37446 74.5857 3.25601C74.9446 3.11782 75.3634 3.05859 75.8021 3.05859C76.2608 3.05859 76.6795 3.11782 77.0185 3.25601C77.3775 3.37446 77.6567 3.55213 77.896 3.72981C78.1353 3.92722 78.3347 4.14438 78.4743 4.36154C78.6138 4.59844 78.7335 4.81559 78.7933 5.01301L77.4373 5.58551C77.3974 5.44732 77.3376 5.32887 77.2379 5.19068C77.1581 5.05249 77.0385 4.93404 76.9188 4.83533C76.7992 4.73663 76.6197 4.63792 76.4402 4.57869C76.2608 4.49973 76.0414 4.47999 75.8021 4.47999C75.5828 4.47999 75.3834 4.49973 75.2039 4.55895C75.0244 4.61818 74.8449 4.69714 74.7253 4.79585C74.5857 4.89456 74.486 5.03275 74.4062 5.17094C74.3265 5.30913 74.2866 5.46706 74.2866 5.625C74.2866 5.9606 74.4262 6.23698 74.7053 6.4344C74.9845 6.63182 75.4033 6.82923 75.9417 7.02665L76.54 7.2438C76.9188 7.36225 77.2578 7.52019 77.557 7.67812C77.876 7.83605 78.1353 8.05321 78.3745 8.27037C78.6138 8.50726 78.7933 8.78365 78.913 9.07977C79.0326 9.39563 79.1124 9.75098 79.1124 10.1458C79.1124 10.6394 79.0127 11.0539 78.8133 11.4093C78.6138 11.7646 78.3546 12.041 78.0555 12.2779C77.7364 12.5148 77.3974 12.6727 77.0185 12.7714C76.6596 12.8504 76.3007 12.8899 75.9218 12.8899Z" fill="#777777"/>
<path d="M84.038 11.8833H83.9582C83.7588 12.1399 83.4996 12.3768 83.2004 12.5742C82.8814 12.7716 82.5025 12.8901 82.004 12.8901C81.665 12.8901 81.326 12.8309 81.0268 12.7322C80.7277 12.6137 80.4685 12.4755 80.2491 12.2781C80.0298 12.0807 79.8503 11.8438 79.7307 11.5871C79.611 11.3108 79.5312 11.0146 79.5312 10.6988C79.5312 10.3632 79.5911 10.0473 79.7307 9.77092C79.8703 9.49453 80.0497 9.27738 80.309 9.07996C80.5483 8.90229 80.8474 8.74436 81.1864 8.64565C81.5254 8.54694 81.8843 8.48771 82.2831 8.48771C82.7218 8.48771 83.0808 8.5272 83.3799 8.60616C83.679 8.68513 83.8984 8.7641 84.038 8.84306V8.58642C84.038 8.38901 83.9981 8.21133 83.9183 8.0534C83.8386 7.89547 83.7189 7.73754 83.5793 7.61909C83.4397 7.50064 83.2603 7.40193 83.0808 7.3427C82.9013 7.28348 82.7019 7.244 82.5025 7.244C82.1834 7.244 81.8843 7.30322 81.6251 7.44141C81.3658 7.55986 81.1266 7.77702 80.9271 8.0534L79.7107 7.28348C80.0298 6.86891 80.4087 6.5333 80.8673 6.33588C81.326 6.11873 81.8444 6.02002 82.4427 6.02002C83.4198 6.02002 84.1576 6.25692 84.696 6.73072C85.2344 7.20451 85.4937 7.87573 85.4937 8.7641V12.6927H84.038V11.8833ZM84.038 9.98807C83.8386 9.86962 83.6192 9.79066 83.3799 9.71169C83.1406 9.63273 82.8614 9.61298 82.5623 9.61298C82.1037 9.61298 81.7248 9.71169 81.4456 9.92885C81.1664 10.146 81.0268 10.4026 81.0268 10.6988C81.0268 10.8567 81.0667 10.9949 81.1266 11.1133C81.2063 11.2318 81.2861 11.3305 81.4057 11.4292C81.5254 11.5082 81.645 11.5871 81.7846 11.6266C81.9242 11.6661 82.0837 11.6858 82.2233 11.6858C82.4626 11.6858 82.7019 11.6464 82.9013 11.5477C83.1207 11.4489 83.3001 11.3305 83.4597 11.1726C83.6192 11.0146 83.7389 10.837 83.8386 10.6395C83.9981 10.4421 84.038 10.225 84.038 9.98807Z" fill="#777777"/>
<path d="M89.3424 3.11816C89.5817 3.11816 89.821 3.13791 90.0004 3.17739C90.1998 3.21687 90.3793 3.2761 90.5189 3.35506L90.1001 4.65801C90.0004 4.61852 89.9007 4.57904 89.801 4.5593C89.7013 4.53956 89.5617 4.51982 89.4022 4.51982C89.1429 4.51982 88.9236 4.59878 88.7441 4.77646C88.5646 4.95413 88.4649 5.21077 88.4649 5.54638V6.21759H90.14V7.52053H88.4849V12.6928H87.0092V7.50079H85.8127V6.19785H87.0092V5.42793C87.0092 5.07258 87.069 4.73697 87.1887 4.46059C87.3083 4.18421 87.4679 3.92757 87.6673 3.73015C87.8667 3.53274 88.1259 3.3748 88.4051 3.2761C88.7042 3.17739 89.0034 3.11816 89.3424 3.11816Z" fill="#777777"/>
<path d="M96.4613 11.1328C96.1821 11.6263 95.8033 12.0607 95.2848 12.3963C94.7862 12.7319 94.1481 12.8898 93.4103 12.8898C92.9118 12.8898 92.473 12.8108 92.0543 12.6332C91.6355 12.4555 91.2766 12.2186 90.9774 11.9225C90.6783 11.6066 90.439 11.2513 90.2795 10.8367C90.12 10.4221 90.0203 9.96805 90.0203 9.45477C90.0203 8.98098 90.1 8.54666 90.2596 8.13209C90.4191 7.71752 90.6384 7.34243 90.9376 7.02656C91.2167 6.7107 91.5757 6.4738 91.9945 6.27638C92.4132 6.09871 92.8519 6 93.3505 6C93.849 6 94.3077 6.07897 94.7065 6.25664C95.1053 6.41457 95.4443 6.65147 95.7036 6.94759C95.9827 7.24372 96.1821 7.59907 96.3417 8.03338C96.4813 8.44795 96.561 8.92175 96.561 9.41529C96.561 9.45477 96.561 9.49426 96.561 9.53374C96.561 9.57322 96.5411 9.61271 96.5411 9.65219C96.5411 9.69167 96.5211 9.73116 96.5211 9.7509H91.4959C91.5159 10.0668 91.5956 10.3234 91.7153 10.5603C91.8349 10.7972 91.9945 10.9749 92.1739 11.1328C92.3534 11.2907 92.5528 11.3894 92.7722 11.4684C92.9915 11.5474 93.2109 11.5671 93.4302 11.5671C93.849 11.5671 94.2079 11.4684 94.4871 11.271C94.7663 11.0736 94.9857 10.8169 95.1651 10.5208L96.4613 11.1328ZM95.1053 8.64537C95.0854 8.50718 95.0455 8.36899 94.9857 8.21106C94.9258 8.05312 94.8261 7.89519 94.6865 7.757C94.547 7.61881 94.3675 7.50036 94.1481 7.40165C93.9288 7.30294 93.6695 7.26346 93.3505 7.26346C92.9317 7.26346 92.5528 7.38191 92.2537 7.63855C91.9546 7.89519 91.7352 8.2308 91.6355 8.64537H95.1053Z" fill="#777777"/>
<path d="M99.8115 3.23633H103.421C103.8 3.23633 104.159 3.29555 104.518 3.43374C104.857 3.55219 105.156 3.72987 105.415 3.96677C105.674 4.18392 105.894 4.46031 106.033 4.75643C106.193 5.07229 106.253 5.4079 106.253 5.76325C106.253 6.25679 106.133 6.65162 105.894 7.00697C105.654 7.34257 105.335 7.59922 104.976 7.75715V7.83611C105.455 7.99405 105.854 8.27043 106.153 8.64552C106.452 9.02061 106.592 9.47466 106.592 10.0274C106.592 10.442 106.512 10.7973 106.352 11.133C106.193 11.4686 105.973 11.7449 105.694 11.9621C105.415 12.199 105.096 12.3767 104.737 12.4951C104.378 12.6136 103.999 12.6925 103.58 12.6925H99.8115V3.23633ZM103.361 7.18464C103.58 7.18464 103.78 7.14516 103.959 7.06619C104.139 6.98723 104.278 6.88852 104.398 6.77007C104.518 6.65162 104.617 6.51343 104.677 6.3555C104.737 6.19756 104.777 6.03963 104.777 5.8817C104.777 5.72377 104.737 5.56583 104.677 5.4079C104.617 5.24997 104.518 5.11178 104.418 4.99333C104.298 4.87488 104.159 4.77617 103.999 4.6972C103.84 4.61824 103.64 4.57875 103.421 4.57875H101.327V7.14516H103.361V7.18464ZM103.56 11.2909C103.8 11.2909 104.019 11.2514 104.199 11.1724C104.378 11.0935 104.538 10.9948 104.657 10.8566C104.777 10.7184 104.877 10.5802 104.936 10.4025C104.996 10.2446 105.036 10.0669 105.036 9.88924C105.036 9.71156 104.996 9.55363 104.936 9.37596C104.877 9.21802 104.777 9.06009 104.637 8.94164C104.498 8.82319 104.338 8.70474 104.159 8.62578C103.959 8.54681 103.74 8.50733 103.501 8.50733H101.307V11.2711H103.56V11.2909Z" fill="#777777"/>
<path d="M107.21 6.21737H108.606V7.1847H108.685C108.765 7.02677 108.865 6.86884 109.004 6.71091C109.144 6.57272 109.304 6.43452 109.463 6.33582C109.643 6.23711 109.822 6.15814 110.002 6.07918C110.201 6.01995 110.38 5.98047 110.56 5.98047C110.779 5.98047 110.959 6.00021 111.098 6.03969C111.258 6.07918 111.377 6.1384 111.517 6.19763L111.098 7.54005C110.999 7.50057 110.899 7.46109 110.779 7.44134C110.66 7.4216 110.52 7.40186 110.34 7.40186C110.101 7.40186 109.882 7.44134 109.682 7.54005C109.483 7.63876 109.304 7.77695 109.164 7.93488C109.004 8.11256 108.905 8.30997 108.805 8.52713C108.725 8.76403 108.685 9.00093 108.685 9.25757V12.6334H107.21V6.21737Z" fill="#777777"/>
<path d="M114.468 6C114.967 6 115.426 6.07897 115.844 6.25664C116.263 6.43431 116.622 6.67121 116.921 6.96734C117.22 7.2832 117.46 7.63855 117.619 8.07286C117.779 8.48744 117.878 8.96123 117.878 9.45477C117.878 9.94831 117.799 10.4024 117.619 10.8367C117.46 11.2513 117.22 11.6263 116.921 11.9422C116.622 12.2581 116.263 12.495 115.844 12.6529C115.426 12.8306 114.967 12.9095 114.468 12.9095C113.97 12.9095 113.511 12.8306 113.092 12.6529C112.674 12.4752 112.315 12.2383 112.016 11.9422C111.716 11.6263 111.477 11.271 111.318 10.8367C111.158 10.4221 111.058 9.94831 111.058 9.45477C111.058 8.96123 111.138 8.50718 111.318 8.07286C111.477 7.65829 111.716 7.2832 112.016 6.96734C112.315 6.65147 112.674 6.41457 113.092 6.25664C113.511 6.09871 113.97 6 114.468 6ZM114.468 11.5276C114.708 11.5276 114.967 11.4882 115.186 11.3894C115.426 11.2907 115.625 11.1525 115.804 10.9749C115.984 10.7972 116.123 10.58 116.243 10.3234C116.343 10.0668 116.403 9.77064 116.403 9.45477C116.403 9.13891 116.343 8.84278 116.243 8.58614C116.143 8.3295 115.984 8.11235 115.804 7.93467C115.625 7.757 115.406 7.61881 115.186 7.5201C114.947 7.42139 114.708 7.38191 114.468 7.38191C114.229 7.38191 113.97 7.42139 113.75 7.5201C113.511 7.61881 113.312 7.757 113.132 7.93467C112.953 8.11235 112.813 8.3295 112.694 8.58614C112.594 8.84278 112.534 9.13891 112.534 9.45477C112.534 9.77064 112.594 10.0668 112.694 10.3234C112.793 10.58 112.953 10.7972 113.132 10.9749C113.312 11.1525 113.531 11.2907 113.75 11.3894C113.99 11.4882 114.229 11.5276 114.468 11.5276Z" fill="#777777"/>
<path d="M117.659 6.21729H119.274L120.55 10.6986H120.61L122.086 6.21729H123.621L125.077 10.6986H125.137L126.393 6.21729H127.989L125.895 12.6925H124.339L122.864 8.1717H122.804L121.368 12.6925H119.813L117.659 6.21729Z" fill="#777777"/>
<path d="M130.701 12.8899C130.302 12.8899 129.943 12.8306 129.624 12.7319C129.305 12.6332 129.025 12.495 128.786 12.3174C128.547 12.1397 128.347 11.9423 128.188 11.7251C128.028 11.508 127.889 11.2711 127.809 11.0342L129.145 10.4814C129.305 10.8565 129.504 11.1329 129.803 11.3105C130.082 11.4882 130.401 11.5869 130.721 11.5869C131.099 11.5869 131.379 11.508 131.598 11.3698C131.817 11.2118 131.917 11.0539 131.917 10.8762C131.917 10.6986 131.837 10.5406 131.678 10.4024C131.518 10.2642 131.219 10.1458 130.78 10.0471L129.843 9.82993C129.644 9.79045 129.424 9.71148 129.225 9.63252C129.026 9.55355 128.826 9.41536 128.647 9.27717C128.467 9.13898 128.328 8.9613 128.208 8.74415C128.088 8.54673 128.048 8.29009 128.048 8.01371C128.048 7.69784 128.108 7.42146 128.248 7.16482C128.387 6.92792 128.567 6.71076 128.806 6.55283C129.045 6.3949 129.325 6.25671 129.644 6.17774C129.963 6.09878 130.302 6.03955 130.641 6.03955C130.94 6.03955 131.219 6.07903 131.478 6.13826C131.757 6.19748 131.997 6.29619 132.236 6.41464C132.475 6.53309 132.675 6.69102 132.854 6.88844C133.034 7.08585 133.173 7.30301 133.293 7.55965L131.977 8.09267C131.857 7.81629 131.658 7.59913 131.399 7.48069C131.139 7.36224 130.86 7.28327 130.581 7.28327C130.461 7.28327 130.322 7.30301 130.202 7.32275C130.082 7.36224 129.963 7.40172 129.863 7.46094C129.763 7.52017 129.684 7.59913 129.604 7.6781C129.544 7.75707 129.504 7.85577 129.504 7.97422C129.504 8.1519 129.584 8.29009 129.743 8.3888C129.903 8.4875 130.142 8.58621 130.461 8.66518L131.458 8.92182C132.136 9.07975 132.635 9.33639 132.954 9.672C133.273 10.0076 133.433 10.4024 133.433 10.8762C133.433 11.1526 133.373 11.429 133.233 11.6659C133.113 11.9028 132.914 12.1397 132.675 12.3174C132.435 12.5148 132.156 12.6727 131.817 12.7714C131.478 12.8504 131.099 12.8899 130.701 12.8899Z" fill="#777777"/>
<path d="M134.749 5.11185C134.47 5.11185 134.23 5.01314 134.031 4.81573C133.831 4.61831 133.752 4.38141 133.752 4.12477C133.752 3.84839 133.851 3.61149 134.031 3.43382C134.23 3.2364 134.47 3.1377 134.749 3.1377C135.028 3.1377 135.267 3.2364 135.447 3.43382C135.646 3.63123 135.726 3.86813 135.726 4.12477C135.726 4.40116 135.626 4.63805 135.447 4.81573C135.267 5.01314 135.028 5.11185 134.749 5.11185ZM134.011 12.6926V6.21738H135.487V12.6926H134.011Z" fill="#777777"/>
<path d="M137.959 7.08579H138.039C138.238 6.76992 138.518 6.51328 138.877 6.31587C139.235 6.11845 139.634 6 140.093 6C140.911 6 141.529 6.2369 141.947 6.73044C142.346 7.22398 142.566 7.87545 142.566 8.68485V12.6924H141.09V8.88227C141.09 8.30976 140.95 7.93467 140.691 7.69777C140.432 7.48062 140.093 7.36217 139.654 7.36217C139.395 7.36217 139.176 7.42139 138.976 7.5201C138.777 7.61881 138.617 7.77674 138.478 7.95442C138.338 8.13209 138.238 8.34925 138.159 8.5664C138.079 8.8033 138.059 9.0402 138.059 9.29684V12.6726H136.583V6.21716H137.979V7.08579H137.959Z" fill="#777777"/>
<path d="M146.374 15.7523C145.916 15.7523 145.517 15.6931 145.158 15.5747C144.799 15.4562 144.5 15.2983 144.241 15.1206C143.982 14.9429 143.762 14.7258 143.603 14.5086C143.443 14.2717 143.323 14.0546 143.244 13.8571L144.66 13.2846C144.779 13.6202 144.999 13.9164 145.298 14.1138C145.597 14.3309 145.956 14.4296 146.374 14.4296C146.993 14.4296 147.471 14.252 147.81 13.8966C148.149 13.5413 148.329 13.0477 148.329 12.416V11.883H148.249C148.05 12.1791 147.77 12.416 147.411 12.6134C147.052 12.8108 146.634 12.9095 146.155 12.9095C145.756 12.9095 145.377 12.8306 144.999 12.6529C144.62 12.4752 144.301 12.2581 144.001 11.9422C143.722 11.6461 143.483 11.271 143.323 10.8564C143.164 10.4221 143.064 9.96806 143.064 9.45477C143.064 8.94149 143.144 8.48744 143.323 8.05312C143.483 7.63855 143.722 7.26346 144.001 6.96734C144.281 6.67121 144.62 6.43431 144.999 6.25664C145.377 6.07897 145.756 6 146.155 6C146.634 6 147.052 6.09871 147.411 6.29612C147.77 6.49354 148.05 6.73044 148.249 7.02656H148.329V6.21716H149.764V12.3173C149.764 12.8701 149.685 13.3636 149.505 13.7979C149.326 14.2322 149.086 14.5876 148.807 14.8837C148.508 15.1798 148.149 15.397 147.73 15.5352C147.312 15.6734 146.853 15.7523 146.374 15.7523ZM146.434 11.5276C146.674 11.5276 146.913 11.4882 147.132 11.3894C147.372 11.2907 147.571 11.1723 147.73 10.9946C147.91 10.8169 148.05 10.5998 148.149 10.3431C148.249 10.0865 148.309 9.79038 148.309 9.43503C148.309 9.09943 148.249 8.8033 148.149 8.54666C148.05 8.29002 147.91 8.07286 147.73 7.89519C147.551 7.71752 147.352 7.57933 147.132 7.50036C146.893 7.40165 146.674 7.36217 146.434 7.36217C146.195 7.36217 145.956 7.40165 145.716 7.50036C145.497 7.59907 145.278 7.73726 145.118 7.91493C144.939 8.09261 144.799 8.30976 144.699 8.5664C144.6 8.82304 144.54 9.11917 144.54 9.45477C144.54 9.79038 144.6 10.0865 144.699 10.3431C144.799 10.5998 144.939 10.8169 145.118 10.9946C145.298 11.1723 145.497 11.3105 145.716 11.4092C145.936 11.4882 146.175 11.5276 146.434 11.5276Z" fill="#777777"/>
<path d="M32.5294 28.5454C31.4526 28.5454 30.5154 28.2492 29.7377 27.6767C28.9599 27.1042 28.4016 26.2751 28.0825 25.209L30.4755 24.2812C30.6151 24.8339 30.8544 25.2683 31.1734 25.6236C31.4925 25.979 31.9511 26.1566 32.5494 26.1566C32.7488 26.1566 32.9283 26.1369 33.1077 26.0974C33.2872 26.0579 33.4467 25.979 33.5863 25.9C33.7259 25.8013 33.8256 25.7026 33.9253 25.5644C34.0051 25.4262 34.0649 25.2683 34.0649 25.0906C34.0649 24.9129 34.025 24.7352 33.9652 24.5773C33.8855 24.4194 33.7857 24.2812 33.6262 24.143C33.4667 24.0048 33.2473 23.8666 32.9682 23.7482C32.689 23.61 32.35 23.4718 31.9511 23.3138L31.2333 23.0572C30.9341 22.9585 30.6151 22.8006 30.296 22.6229C29.9769 22.4452 29.6778 22.2083 29.4186 21.9319C29.1594 21.6555 28.94 21.3594 28.7805 21.0041C28.6209 20.6487 28.5412 20.2736 28.5412 19.8393C28.5412 19.3853 28.6409 18.951 28.8203 18.5364C28.9998 18.1218 29.2591 17.7862 29.5981 17.4901C29.9371 17.194 30.3359 16.9571 30.8145 16.7991C31.2931 16.6214 31.8116 16.5425 32.3899 16.5425C32.9881 16.5425 33.5066 16.6214 33.9453 16.7794C34.384 16.9373 34.7429 17.1347 35.0421 17.3716C35.3412 17.6085 35.5805 17.8849 35.7599 18.181C35.9394 18.4772 36.079 18.7733 36.1787 19.0497L33.9852 19.9578C33.8655 19.6222 33.686 19.3458 33.4268 19.1286C33.1676 18.9115 32.8286 18.8128 32.4297 18.8128C31.991 18.8128 31.652 18.8917 31.3928 19.0694C31.1335 19.2471 31.0139 19.4642 31.0139 19.7604C31.0139 20.0565 31.1535 20.3131 31.4127 20.5303C31.672 20.7474 32.1306 20.9843 32.7887 21.2015L33.5066 21.4384C34.4837 21.774 35.2614 22.2083 35.7998 22.7808C36.3382 23.3336 36.6174 24.0838 36.6174 25.0314C36.6174 25.6236 36.4978 26.1566 36.2585 26.5909C36.0192 27.0253 35.7001 27.4003 35.3212 27.6767C34.9423 27.9729 34.5036 28.19 34.025 28.3282C33.4667 28.4664 33.008 28.5454 32.5294 28.5454Z" fill="#777777"/>
<path d="M38.7511 19.6814C38.5318 19.6814 38.3324 19.6419 38.1529 19.5629C37.9734 19.484 37.8139 19.3853 37.6743 19.2471C37.5347 19.1089 37.435 18.9509 37.3552 18.7733C37.2755 18.5956 37.2356 18.3982 37.2356 18.181C37.2356 17.9836 37.2755 17.7862 37.3552 17.5888C37.435 17.4111 37.5347 17.2334 37.6743 17.115C37.8139 16.9768 37.9734 16.8781 38.1529 16.7991C38.3324 16.7201 38.5318 16.6807 38.7511 16.6807C38.9505 16.6807 39.15 16.7201 39.3494 16.7991C39.5288 16.8781 39.7083 16.9768 39.828 17.115C39.9675 17.2532 40.0673 17.4111 40.147 17.5888C40.2268 17.7665 40.2667 17.9639 40.2667 18.181C40.2667 18.3982 40.2268 18.5956 40.147 18.7733C40.0673 18.9509 39.9675 19.1089 39.828 19.2471C39.6884 19.3853 39.5288 19.484 39.3494 19.5629C39.15 19.6222 38.9505 19.6814 38.7511 19.6814ZM37.5347 28.2887V20.4118H39.9675V28.2887H37.5347Z" fill="#777777"/>
<path d="M42.0016 22.4255H40.6057V20.4119H42.0016V18.0034H44.4345V20.4119H46.3887V22.4255H44.4345V25.1696C44.4345 25.3473 44.4544 25.5052 44.4943 25.6631C44.5342 25.8211 44.6139 25.9395 44.7136 26.0382C44.8732 26.1764 45.0925 26.2554 45.3517 26.2554C45.5312 26.2554 45.6708 26.2356 45.7905 26.1962C45.9101 26.1567 46.0098 26.0975 46.0896 26.0382L46.7676 28.1308C46.4884 28.269 46.1893 28.3677 45.8503 28.427C45.5312 28.5059 45.1723 28.5454 44.8133 28.5454C43.9559 28.5454 43.2779 28.2888 42.7793 27.7952C42.5201 27.5386 42.3207 27.203 42.1811 26.8279C42.0415 26.4331 41.9617 26.0185 41.9617 25.5447V22.4255H42.0016Z" fill="#777777"/>
<path d="M54.9436 26.3739C54.5448 27.0451 54.0463 27.5781 53.4081 27.9729C52.77 28.3678 52.0122 28.5454 51.1149 28.5454C50.4967 28.5454 49.9184 28.4467 49.3999 28.2296C48.8814 28.0124 48.4228 27.736 48.024 27.3609C47.6251 26.9859 47.326 26.5515 47.1067 26.0383C46.8873 25.525 46.7876 24.9722 46.7876 24.3602C46.7876 23.7877 46.8873 23.2547 47.1067 22.7414C47.326 22.2281 47.6251 21.7938 48.004 21.399C48.3829 21.0239 48.8416 20.708 49.36 20.4909C49.8785 20.2737 50.4369 20.1553 51.0351 20.1553C51.6932 20.1553 52.2715 20.254 52.77 20.4711C53.2685 20.6883 53.6873 20.9844 54.0263 21.3398C54.3653 21.7149 54.6246 22.1492 54.7841 22.6427C54.9636 23.1363 55.0433 23.6693 55.0433 24.2418C55.0433 24.3207 55.0433 24.4195 55.0433 24.4984C55.0433 24.5774 55.0234 24.6564 55.0234 24.7156C55.0035 24.7945 55.0035 24.8538 55.0035 24.9327H49.1407C49.2603 25.446 49.4996 25.8211 49.8785 26.058C50.2375 26.2949 50.6562 26.4133 51.1149 26.4133C51.5735 26.4133 51.9524 26.3146 52.2515 26.1172C52.5507 25.9198 52.79 25.6829 52.9495 25.3868L54.9436 26.3739ZM52.79 23.2942C52.77 23.156 52.7102 23.0178 52.6304 22.8796C52.5507 22.7217 52.431 22.5835 52.2914 22.465C52.1518 22.3466 51.9724 22.2479 51.753 22.1689C51.5336 22.0899 51.3143 22.0505 51.0551 22.0505C50.6762 22.0505 50.3172 22.1492 49.9982 22.3663C49.6791 22.5835 49.4398 22.8994 49.2803 23.2942H52.79Z" fill="#777777"/>
<path d="M61.1054 28.2888V20.0961L59.2309 20.866L58.3335 18.8129L61.6039 17.3125H63.5382V28.2888H61.1054Z" fill="#777777"/>
<path d="M69.6603 28.5453C68.9224 28.5453 68.2644 28.4071 67.6861 28.1109C67.1078 27.8148 66.6092 27.42 66.1905 26.9067C65.7717 26.3934 65.4726 25.7814 65.2333 25.0905C65.0139 24.3798 64.8943 23.6296 64.8943 22.8005C64.8943 21.9713 65.0139 21.2211 65.2333 20.5104C65.4526 19.7997 65.7717 19.2075 66.1905 18.6942C66.6092 18.1809 67.1078 17.7861 67.6861 17.49C68.2644 17.1939 68.9224 17.0557 69.6603 17.0557C70.3782 17.0557 71.0362 17.1939 71.6345 17.49C72.2327 17.7861 72.7312 18.1809 73.1301 18.6942C73.5488 19.2075 73.8479 19.8195 74.0872 20.5104C74.3066 21.2211 74.4262 21.9713 74.4262 22.8005C74.4262 23.6296 74.3066 24.3798 74.0872 25.0905C73.8679 25.8012 73.5488 26.3934 73.1301 26.9067C72.7113 27.42 72.2128 27.8148 71.6345 28.1109C71.0562 28.3873 70.3981 28.5453 69.6603 28.5453ZM69.6603 26.2947C70.0192 26.2947 70.3582 26.2157 70.6374 26.0381C70.9166 25.8604 71.1758 25.6235 71.3752 25.3076C71.5746 24.9918 71.7342 24.6364 71.8339 24.2021C71.9336 23.7678 71.9934 23.3137 71.9934 22.8005C71.9934 22.3069 71.9336 21.8331 71.8339 21.3988C71.7342 20.9645 71.5746 20.6091 71.3752 20.2933C71.1758 19.9774 70.9365 19.7405 70.6374 19.5628C70.3582 19.3852 70.0192 19.3062 69.6603 19.3062C69.3013 19.3062 68.9623 19.3852 68.6831 19.5628C68.404 19.7405 68.1447 19.9774 67.9453 20.2933C67.7459 20.6091 67.5864 20.9645 67.4867 21.3988C67.387 21.8331 67.3271 22.2872 67.3271 22.8005C67.3271 23.294 67.387 23.7678 67.4867 24.2021C67.5864 24.6364 67.7459 24.9918 67.9453 25.3076C68.1447 25.6235 68.384 25.8604 68.6831 26.0381C68.9623 26.196 69.3013 26.2947 69.6603 26.2947Z" fill="#777777"/>
<path d="M79.91 28.5453C79.1722 28.5453 78.5141 28.4071 77.9358 28.1109C77.3575 27.8148 76.859 27.42 76.4402 26.9067C76.0215 26.3934 75.7223 25.7814 75.483 25.0905C75.2637 24.3798 75.144 23.6296 75.144 22.8005C75.144 21.9713 75.2637 21.2211 75.483 20.5104C75.7024 19.7997 76.0215 19.2075 76.4402 18.6942C76.859 18.1809 77.3575 17.7861 77.9358 17.49C78.5141 17.1939 79.1722 17.0557 79.91 17.0557C80.6279 17.0557 81.2859 17.1939 81.8842 17.49C82.4824 17.7861 82.981 18.1809 83.3798 18.6942C83.7985 19.2075 84.0977 19.8195 84.337 20.5104C84.5563 21.2211 84.676 21.9713 84.676 22.8005C84.676 23.6296 84.5563 24.3798 84.337 25.0905C84.1176 25.8012 83.7985 26.3934 83.3798 26.9067C82.961 27.42 82.4625 27.8148 81.8842 28.1109C81.2859 28.3873 80.6279 28.5453 79.91 28.5453ZM79.91 26.2947C80.2689 26.2947 80.6079 26.2157 80.8871 26.0381C81.1663 25.8604 81.4255 25.6235 81.625 25.3076C81.8244 24.9918 81.9839 24.6364 82.0836 24.2021C82.1833 23.7678 82.2431 23.3137 82.2431 22.8005C82.2431 22.3069 82.1833 21.8331 82.0836 21.3988C81.9839 20.9645 81.8244 20.6091 81.625 20.2933C81.4255 19.9774 81.1862 19.7405 80.8871 19.5628C80.6079 19.3852 80.2689 19.3062 79.91 19.3062C79.5511 19.3062 79.2121 19.3852 78.9329 19.5628C78.6537 19.7405 78.3945 19.9774 78.1951 20.2933C77.9956 20.6091 77.8361 20.9645 77.7364 21.3988C77.6367 21.8331 77.5769 22.2872 77.5769 22.8005C77.5769 23.294 77.6367 23.7678 77.7364 24.2021C77.8361 24.6364 77.9956 24.9918 78.1951 25.3076C78.3945 25.6235 78.6338 25.8604 78.9329 26.0381C79.2121 26.196 79.5311 26.2947 79.91 26.2947Z" fill="#777777"/>
<path d="M88.086 22.5239C87.6672 22.5239 87.2684 22.445 86.9095 22.3068C86.5505 22.1686 86.2514 21.9712 85.9922 21.7145C85.7329 21.4776 85.5335 21.1815 85.3939 20.8459C85.2543 20.5103 85.1746 20.155 85.1746 19.7601C85.1746 19.3653 85.2543 19.0099 85.3939 18.6941C85.5335 18.3585 85.7329 18.0821 85.9922 17.8254C86.2514 17.5886 86.5505 17.3911 86.9095 17.2332C87.2684 17.0753 87.6473 17.016 88.086 17.016C88.5247 17.016 88.9036 17.095 89.2625 17.2332C89.6215 17.3714 89.9206 17.5688 90.1798 17.8254C90.4391 18.0623 90.6385 18.3585 90.7781 18.6941C90.9177 19.0297 90.9974 19.385 90.9974 19.7601C90.9974 20.155 90.9177 20.5103 90.7781 20.8459C90.6385 21.1815 90.4391 21.4579 90.1798 21.7145C89.9206 21.9514 89.6215 22.1488 89.2625 22.3068C88.9036 22.4647 88.5247 22.5239 88.086 22.5239ZM88.086 20.7077C88.3253 20.7077 88.5447 20.6288 88.7241 20.4708C88.9036 20.3129 88.9834 20.076 88.9834 19.7996C88.9834 19.5035 88.9036 19.2863 88.7241 19.1284C88.5447 18.9705 88.3452 18.8915 88.086 18.8915C87.8467 18.8915 87.6273 18.9705 87.4479 19.1284C87.2684 19.2863 87.1886 19.5232 87.1886 19.7996C87.1886 20.0957 87.2684 20.3129 87.4479 20.4708C87.6273 20.6288 87.8467 20.7077 88.086 20.7077ZM87.2684 27.6173L94.4672 16.9766L95.923 17.9636L88.7241 28.6043L87.2684 27.6173ZM95.1054 28.5451C94.6866 28.5451 94.2878 28.4661 93.9288 28.328C93.5699 28.1898 93.2708 27.9924 93.0115 27.7357C92.7523 27.4988 92.5529 27.2027 92.4133 26.8671C92.2737 26.5315 92.1939 26.1761 92.1939 25.7813C92.1939 25.3865 92.2737 25.0311 92.4133 24.6955C92.5529 24.3599 92.7523 24.0835 93.0115 23.8269C93.2708 23.59 93.5699 23.3926 93.9288 23.2346C94.2878 23.0964 94.6667 23.0175 95.1054 23.0175C95.5241 23.0175 95.923 23.0964 96.2819 23.2346C96.6408 23.3728 96.94 23.5702 97.1992 23.8269C97.4584 24.0638 97.6579 24.3599 97.7975 24.6955C97.937 25.0311 98.0168 25.3865 98.0168 25.7813C98.0168 26.1761 97.937 26.5315 97.7975 26.8671C97.6579 27.2027 97.4584 27.4791 97.1992 27.7357C96.94 27.9726 96.6408 28.17 96.2819 28.328C95.903 28.4661 95.5241 28.5451 95.1054 28.5451ZM95.1054 26.7091C95.3447 26.7091 95.564 26.6302 95.7435 26.4722C95.923 26.3143 96.0027 26.0774 96.0027 25.801C96.0027 25.5049 95.923 25.2878 95.7435 25.1298C95.564 24.9719 95.3646 24.8929 95.1054 24.8929C94.8661 24.8929 94.6467 24.9719 94.4672 25.1298C94.2878 25.2878 94.208 25.5247 94.208 25.801C94.208 26.0972 94.2878 26.3143 94.4672 26.4722C94.6467 26.6302 94.8461 26.7091 95.1054 26.7091Z" fill="#777777"/>
<path d="M105.056 28.5454C103.979 28.5454 103.042 28.2492 102.265 27.6767C101.487 27.1042 100.928 26.2751 100.609 25.209L103.002 24.2812C103.142 24.8339 103.381 25.2683 103.7 25.6236C104.019 25.979 104.478 26.1566 105.076 26.1566C105.276 26.1566 105.455 26.1369 105.635 26.0974C105.814 26.0579 105.974 25.979 106.113 25.9C106.253 25.8013 106.352 25.7026 106.452 25.5644C106.532 25.4262 106.592 25.2683 106.592 25.0906C106.592 24.9129 106.552 24.7352 106.492 24.5773C106.412 24.4194 106.313 24.2812 106.153 24.143C105.994 24.0048 105.774 23.8666 105.495 23.7482C105.216 23.61 104.877 23.4718 104.478 23.3138L103.76 23.0572C103.461 22.9585 103.142 22.8006 102.823 22.6229C102.504 22.4452 102.205 22.2083 101.945 21.9319C101.686 21.6555 101.467 21.3594 101.307 21.0041C101.148 20.6487 101.068 20.2736 101.068 19.8393C101.068 19.3853 101.168 18.951 101.347 18.5364C101.527 18.1218 101.786 17.7862 102.125 17.4901C102.464 17.194 102.863 16.9571 103.341 16.7991C103.82 16.6214 104.338 16.5425 104.917 16.5425C105.515 16.5425 106.033 16.6214 106.472 16.7794C106.911 16.9373 107.27 17.1347 107.569 17.3716C107.868 17.6085 108.107 17.8849 108.287 18.181C108.466 18.4772 108.606 18.7733 108.706 19.0497L106.512 19.9578C106.392 19.6222 106.213 19.3458 105.954 19.1286C105.694 18.9115 105.355 18.8128 104.957 18.8128C104.518 18.8128 104.179 18.8917 103.92 19.0694C103.66 19.2471 103.541 19.4642 103.541 19.7604C103.541 20.0565 103.68 20.3131 103.94 20.5303C104.199 20.7474 104.657 20.9843 105.316 21.2015L106.033 21.4384C107.011 21.774 107.788 22.2083 108.327 22.7808C108.865 23.3336 109.144 24.0838 109.144 25.0314C109.144 25.6236 109.025 26.1566 108.785 26.5909C108.546 27.0253 108.227 27.4003 107.848 27.6767C107.469 27.9729 107.03 28.19 106.552 28.3282C105.994 28.4664 105.535 28.5454 105.056 28.5454Z" fill="#777777"/>
<path d="M117.619 26.3739C117.22 27.0451 116.722 27.5781 116.084 27.9729C115.446 28.3678 114.688 28.5454 113.79 28.5454C113.172 28.5454 112.594 28.4467 112.075 28.2296C111.557 28.0124 111.098 27.736 110.699 27.3609C110.301 26.9859 110.002 26.5515 109.782 26.0383C109.563 25.525 109.463 24.9722 109.463 24.3602C109.463 23.7877 109.563 23.2547 109.782 22.7414C110.002 22.2281 110.301 21.7938 110.68 21.399C111.058 21.0239 111.517 20.708 112.036 20.4909C112.554 20.2737 113.112 20.1553 113.711 20.1553C114.369 20.1553 114.947 20.254 115.446 20.4711C115.944 20.6883 116.363 20.9844 116.702 21.3398C117.041 21.7149 117.3 22.1492 117.46 22.6427C117.639 23.1363 117.719 23.6693 117.719 24.2418C117.719 24.3207 117.719 24.4195 117.719 24.4984C117.719 24.5774 117.699 24.6564 117.699 24.7156C117.679 24.7945 117.679 24.8538 117.679 24.9327H111.816C111.936 25.446 112.175 25.8211 112.554 26.058C112.913 26.2949 113.332 26.4133 113.79 26.4133C114.249 26.4133 114.628 26.3146 114.927 26.1172C115.226 25.9198 115.465 25.6829 115.625 25.3868L117.619 26.3739ZM115.465 23.2942C115.446 23.156 115.386 23.0178 115.306 22.8796C115.226 22.7217 115.107 22.5835 114.967 22.465C114.827 22.3466 114.648 22.2479 114.429 22.1689C114.209 22.0899 113.99 22.0505 113.731 22.0505C113.352 22.0505 112.993 22.1492 112.674 22.3663C112.355 22.5835 112.115 22.8994 111.956 23.2942H115.465Z" fill="#777777"/>
<path d="M122.246 32.0002C121.667 32.0002 121.149 31.9212 120.71 31.7831C120.252 31.6449 119.853 31.4474 119.514 31.2303C119.175 30.9934 118.896 30.7367 118.676 30.4604C118.457 30.184 118.297 29.8879 118.178 29.5917L120.511 28.6836C120.67 29.0982 120.91 29.3943 121.229 29.5917C121.548 29.7892 121.887 29.8879 122.246 29.8879C122.824 29.8879 123.303 29.7102 123.662 29.3351C124.02 28.96 124.2 28.427 124.2 27.736V27.3017H124.04C123.542 27.9729 122.784 28.2888 121.767 28.2888C121.308 28.2888 120.87 28.1901 120.411 28.0124C119.972 27.8347 119.574 27.5584 119.215 27.203C118.856 26.8477 118.576 26.4331 118.357 25.9198C118.138 25.4263 118.038 24.8538 118.038 24.222C118.038 23.5903 118.138 23.0178 118.357 22.5243C118.576 22.0307 118.856 21.5964 119.215 21.2411C119.574 20.8857 119.972 20.6291 120.411 20.4317C120.85 20.254 121.308 20.1553 121.767 20.1553C122.784 20.1553 123.542 20.4909 124.04 21.1424H124.2V20.4119H126.533V27.5978C126.533 28.2493 126.433 28.8218 126.234 29.3746C126.035 29.9076 125.755 30.3814 125.377 30.7762C124.998 31.1711 124.559 31.4672 124.02 31.6843C123.502 31.9015 122.904 32.0002 122.246 32.0002ZM122.345 26.0975C122.565 26.0975 122.804 26.058 123.023 25.979C123.243 25.9001 123.442 25.7816 123.622 25.6237C123.801 25.4658 123.941 25.2683 124.06 25.0314C124.16 24.7945 124.22 24.5182 124.22 24.222C124.22 23.9062 124.16 23.6298 124.06 23.4126C123.961 23.1757 123.801 22.9783 123.622 22.8204C123.442 22.6625 123.243 22.544 123.023 22.465C122.804 22.3861 122.585 22.3466 122.345 22.3466C122.126 22.3466 121.887 22.3861 121.667 22.465C121.448 22.544 121.249 22.6625 121.069 22.8204C120.89 22.9783 120.75 23.1757 120.63 23.4126C120.531 23.6495 120.471 23.9259 120.471 24.222C120.471 24.5379 120.531 24.8143 120.63 25.0314C120.73 25.2683 120.89 25.4658 121.069 25.6237C121.249 25.7816 121.448 25.9001 121.667 25.979C121.887 26.058 122.106 26.0975 122.345 26.0975Z" fill="#777777"/>
<path d="M133.054 27.2819H132.894C132.356 28.111 131.538 28.5256 130.461 28.5256C129.464 28.5256 128.726 28.2097 128.248 27.578C127.769 26.9463 127.51 26.1171 127.51 25.0906V20.3921H129.943V24.8142C129.943 25.2485 130.043 25.5841 130.242 25.8605C130.441 26.1369 130.76 26.2751 131.199 26.2751C131.758 26.2751 132.176 26.0579 132.455 25.6433C132.735 25.2288 132.894 24.676 132.894 24.0048V20.3921H135.327V28.269H133.054V27.2819Z" fill="#777777"/>
<path d="M136.444 20.4116H138.717V21.3987H138.877C139.096 21.0631 139.395 20.767 139.794 20.5103C140.193 20.2734 140.631 20.1353 141.13 20.1353C141.429 20.1353 141.668 20.1747 141.888 20.234C142.107 20.3129 142.287 20.3919 142.426 20.4709L141.788 22.6227C141.648 22.5437 141.489 22.4845 141.349 22.445C141.19 22.4055 140.99 22.3858 140.731 22.3858C140.133 22.3858 139.654 22.6029 139.335 23.0175C139.016 23.4321 138.857 23.9849 138.857 24.6561V28.2688H136.424V20.4116H136.444Z" fill="#777777"/>
<path d="M146.055 20.1553C146.674 20.1553 147.252 20.254 147.77 20.4711C148.289 20.6883 148.748 20.9647 149.126 21.3398C149.505 21.7149 149.804 22.1492 150.024 22.6625C150.243 23.1757 150.343 23.7285 150.343 24.3405C150.343 24.9525 150.243 25.5052 150.024 26.0185C149.804 26.5318 149.525 26.9661 149.126 27.3412C148.748 27.7163 148.289 27.9927 147.77 28.2098C147.252 28.427 146.674 28.5257 146.055 28.5257C145.437 28.5257 144.859 28.427 144.34 28.2098C143.822 27.9927 143.363 27.7163 142.984 27.3412C142.606 26.9661 142.306 26.5318 142.087 26.0185C141.868 25.5052 141.768 24.9327 141.768 24.3405C141.768 23.7285 141.868 23.1757 142.087 22.6625C142.306 22.1492 142.586 21.7149 142.984 21.3398C143.363 20.9647 143.822 20.6883 144.34 20.4711C144.859 20.254 145.437 20.1553 146.055 20.1553ZM146.055 26.2949C146.295 26.2949 146.534 26.2554 146.753 26.1567C146.973 26.058 147.172 25.9396 147.352 25.7619C147.531 25.6039 147.651 25.3868 147.75 25.1499C147.85 24.913 147.89 24.6366 147.89 24.3405C147.89 24.0444 147.85 23.768 147.75 23.5311C147.651 23.2942 147.511 23.0968 147.352 22.9191C147.172 22.7414 146.973 22.623 146.753 22.5243C146.534 22.4256 146.295 22.3861 146.055 22.3861C145.816 22.3861 145.577 22.4256 145.358 22.5243C145.138 22.623 144.939 22.7414 144.759 22.9191C144.58 23.0968 144.46 23.2942 144.36 23.5311C144.261 23.768 144.221 24.0246 144.221 24.3405C144.221 24.6366 144.261 24.913 144.36 25.1499C144.46 25.3868 144.6 25.6039 144.759 25.7619C144.939 25.9198 145.138 26.058 145.358 26.1567C145.557 26.2357 145.796 26.2949 146.055 26.2949Z" fill="#777777"/>
<path d="M11.3916 4.53906H22.0403V13.9953C22.0004 25.0703 11.3916 30.1044 11.3916 30.1044C11.3916 30.1044 0.782803 25.0703 0.74292 13.9953V4.53906H11.3916Z" fill="#449C4D"/>
<path d="M11.3916 4.53906V30.1044C11.3916 30.1044 0.782803 25.0703 0.74292 13.9953V4.53906H11.3916Z" fill="#76C47D"/>
<path d="M22.0203 4.53906H0.74292V4.91415H22.0203V4.53906Z" fill="#6EB773"/>
<path d="M20.2854 0.571289H2.47782C1.52063 0.571289 0.74292 1.34121 0.74292 2.28881V4.53934H22.0203V2.28881C22.0203 1.34121 21.2626 0.571289 20.2854 0.571289Z" fill="#E7E7E7"/>
<path d="M3.17564 3.1965C3.53908 3.1965 3.83371 2.90483 3.83371 2.54503C3.83371 2.18523 3.53908 1.89355 3.17564 1.89355C2.8122 1.89355 2.51758 2.18523 2.51758 2.54503C2.51758 2.90483 2.8122 3.1965 3.17564 3.1965Z" fill="white"/>
<path d="M5.40929 3.1965C5.77272 3.1965 6.06735 2.90483 6.06735 2.54503C6.06735 2.18523 5.77272 1.89355 5.40929 1.89355C5.04585 1.89355 4.75122 2.18523 4.75122 2.54503C4.75122 2.90483 5.04585 3.1965 5.40929 3.1965Z" fill="white"/>
<path d="M11.3916 15.9697C13.4621 15.9697 15.1405 14.308 15.1405 12.2583C15.1405 10.2085 13.4621 8.54688 11.3916 8.54688C9.32105 8.54688 7.64258 10.2085 7.64258 12.2583C7.64258 14.308 9.32105 15.9697 11.3916 15.9697Z" fill="#E7E7E7"/>
<path d="M11.3916 19.405C13.0268 19.405 14.5623 19.8196 15.8983 20.55C16.0778 20.1552 16.2373 19.7603 16.3769 19.326C14.8813 18.5364 13.1863 18.1021 11.3916 18.1021C9.59687 18.1021 7.88191 18.5364 6.40625 19.326C6.54584 19.7603 6.70537 20.1749 6.88484 20.55C8.22091 19.8196 9.7564 19.405 11.3916 19.405Z" fill="#E7E7E7"/>
<path d="M11.3916 21.7146C12.608 21.7146 13.7646 22.0304 14.7617 22.5832C15.001 22.2476 15.2203 21.8725 15.4397 21.4579C14.2432 20.7867 12.8673 20.4116 11.3916 20.4116C9.91594 20.4116 8.53999 20.7867 7.34351 21.4579C7.56286 21.8528 7.78222 22.2279 8.02151 22.5832C9.01858 22.0304 10.1552 21.7146 11.3916 21.7146Z" fill="#E7E7E7"/>
<path d="M11.3915 25.9986C11.3915 25.9986 12.7674 25.1694 14.1633 23.4124C13.3457 22.9781 12.3885 22.7412 11.3915 22.7412C10.3944 22.7412 9.45717 22.9781 8.61963 23.4124C10.0155 25.1694 11.3915 25.9986 11.3915 25.9986Z" fill="#E7E7E7"/>
<path d="M22.0403 4.53906H11.3916V4.91415H22.0403V4.53906Z" fill="#3D9047"/>
</g>
<defs>
<clipPath id="clip0">
<rect width="149.6" height="31.4286" fill="white" transform="translate(0.74292 0.571289)"/>
</clipPath>
</defs>
</svg>