<svg xmlns:xlink="http://www.w3.org/1999/xlink" xmlns="http://www.w3.org/2000/svg" width="38" height="24" viewBox="0 0 38 24" fill="none">
<g clip-path="url(#clip0)">
<path d="M24.7752 2.57227H13.4198V21.4606H24.7752V2.57227Z" fill="#FF5F00"/>
<path d="M14.5651 12.0499C14.5651 8.37897 16.2341 4.87495 19.0811 2.60567C13.9761 -1.49905 6.54763 -0.598011 2.52251 4.60797C-1.5026 9.81396 -0.619042 17.3893 4.51871 21.4607C8.80562 24.898 14.7942 24.898 19.0811 21.494C16.2341 19.1914 14.5651 15.7207 14.5651 12.0499Z" fill="#EB001B"/>
<path d="M37.0142 19.4916V19.0912H37.1778V19.0244H36.7852V19.0912H36.9488V19.4916H37.0142ZM37.7669 19.4916V19.0244H37.636L37.5051 19.3581L37.3742 19.0244H37.2433V19.4916H37.3415V19.1245L37.4724 19.4249H37.5705L37.7014 19.1245V19.4916H37.7669Z" fill="#F79E1B"/>
<path d="M38.1268 12.05C38.1268 18.6909 32.8582 24.0638 26.346 24.0638C23.6953 24.0638 21.1428 23.1627 19.0812 21.4941C24.1862 17.3894 25.0698 9.81406 21.0774 4.60807C20.4883 3.84052 19.8338 3.17309 19.0812 2.5724C24.1862 -1.53232 31.6147 -0.631284 35.6398 4.60807C37.2433 6.71049 38.1268 9.34685 38.1268 12.05Z" fill="#F79E1B"/>
</g>
<defs>
<clipPath id="clip0">
<rect width="38" height="24" fill="white"/>
</clipPath>
</defs>
</svg>