<svg xmlns:xlink="http://www.w3.org/1999/xlink" xmlns="http://www.w3.org/2000/svg" width="73" height="18" viewBox="0 0 73 18" fill="none">
<g clip-path="url(#clip0)">
<path d="M56.2065 4.00647H52.2081C51.9225 4.00647 51.694 4.18066 51.6369 4.47099L50.0375 14.9226C49.9804 15.1549 50.1518 15.329 50.3803 15.329H52.4366C52.608 15.329 52.7793 15.2129 52.8364 14.9807L53.2934 12.0194C53.3505 11.7291 53.579 11.5549 53.8646 11.5549H55.1213C57.7488 11.5549 59.291 10.2774 59.6909 7.66453C59.8623 6.56131 59.6909 5.63228 59.1768 5.05163C58.5485 4.41292 57.5203 4.00647 56.2065 4.00647ZM56.6635 7.83873C56.435 9.29034 55.3497 9.29034 54.2644 9.29034H53.6932L54.0931 6.56131C54.0931 6.38711 54.2644 6.27099 54.4358 6.27099H54.7214C55.464 6.27099 56.1494 6.27099 56.4921 6.67744C56.6635 6.96776 56.7206 7.31615 56.6635 7.83873Z" fill="#009CDE"/>
<path d="M27.5892 4.00647H23.5907C23.3051 4.00647 23.0767 4.18066 23.0195 4.47099L21.4202 14.9226C21.363 15.1549 21.5344 15.329 21.7629 15.329H23.705C23.9906 15.329 24.2191 15.1549 24.2762 14.8645L24.7331 12.0194C24.7903 11.7291 25.0187 11.5549 25.3044 11.5549H26.561C29.1885 11.5549 30.7308 10.2774 31.1306 7.66453C31.302 6.56131 31.1306 5.63228 30.6166 5.05163C29.9311 4.41292 28.9029 4.00647 27.5892 4.00647ZM28.0461 7.83873C27.8177 9.29034 26.7324 9.29034 25.6471 9.29034H25.0187L25.4186 6.56131C25.4186 6.38711 25.59 6.27099 25.7613 6.27099H26.0469C26.7895 6.27099 27.4749 6.27099 27.8177 6.67744C28.0461 6.96776 28.1033 7.31615 28.0461 7.83873Z" fill="#003087"/>
<path d="M39.5845 7.78064H37.6424C37.471 7.78064 37.3568 7.89677 37.2996 8.07096L37.2425 8.59354L37.1283 8.41935C36.7284 7.78064 35.7574 7.60645 34.8435 7.60645C32.73 7.60645 30.9021 9.23225 30.5594 11.5548C30.3881 12.7161 30.6165 13.8193 31.302 14.5742C31.8732 15.271 32.73 15.5613 33.701 15.5613C35.4147 15.5613 36.3857 14.4581 36.3857 14.4581L36.2715 14.9806C36.2143 15.2129 36.3857 15.3871 36.6142 15.3871H38.3278C38.6134 15.3871 38.8419 15.2129 38.899 14.9226L39.9272 8.24515C39.9272 8.0129 39.7558 7.78064 39.5845 7.78064ZM36.8998 11.6129C36.7284 12.7161 35.8145 13.471 34.7292 13.471C34.158 13.471 33.701 13.2968 33.4154 12.9484C33.1298 12.6 33.0156 12.1355 33.1298 11.5548C33.3012 10.4516 34.2151 9.69677 35.3004 9.69677C35.8716 9.69677 36.2715 9.87096 36.5571 10.2193C36.8427 10.5677 36.9569 11.0323 36.8998 11.6129Z" fill="#003087"/>
<path d="M68.2018 7.78064H66.2597C66.0884 7.78064 65.9741 7.89677 65.917 8.07096L65.8599 8.59354L65.7457 8.41935C65.3458 7.78064 64.3748 7.60645 63.4608 7.60645C61.3474 7.60645 59.5195 9.23225 59.1768 11.5548C59.0055 12.7161 59.2339 13.8193 59.9194 14.5742C60.4906 15.271 61.3474 15.5613 62.3184 15.5613C64.0321 15.5613 65.0031 14.4581 65.0031 14.4581L64.8889 14.9806C64.8317 15.2129 65.0031 15.3871 65.2316 15.3871H66.9452C67.2308 15.3871 67.4593 15.2129 67.5164 14.9226L68.5446 8.24515C68.5446 8.0129 68.4303 7.78064 68.2018 7.78064ZM65.5172 11.6129C65.3458 12.7161 64.4319 13.471 63.3466 13.471C62.7754 13.471 62.3184 13.2968 62.0328 12.9484C61.7472 12.6 61.633 12.1355 61.7472 11.5548C61.9186 10.4516 62.8325 9.69677 63.9178 9.69677C64.489 9.69677 64.8889 9.87096 65.1745 10.2193C65.5172 10.5677 65.6314 11.0323 65.5172 11.6129Z" fill="#009CDE"/>
<path d="M49.8091 7.78064H47.867C47.6956 7.78064 47.5242 7.89677 47.41 8.0129L44.7253 12.0194L43.5829 8.18709C43.5258 7.95483 43.2973 7.78064 43.0688 7.78064H41.1839C40.9554 7.78064 40.784 8.0129 40.8411 8.24516L42.9546 14.5742L40.9554 17.4193C40.784 17.6516 40.9554 17.9419 41.241 17.9419H43.1831C43.3544 17.9419 43.5258 17.8258 43.6401 17.7097L50.0375 8.30322C50.266 8.12903 50.0947 7.78064 49.8091 7.78064Z" fill="#003087"/>
<path d="M70.4867 4.29679L68.8302 14.9226C68.773 15.1549 68.9444 15.329 69.1729 15.329H70.8294C71.115 15.329 71.3435 15.1549 71.4006 14.8645L73 4.41292C73.0571 4.18066 72.8857 4.00647 72.6572 4.00647H70.8294C70.658 4.00647 70.4867 4.1226 70.4867 4.29679Z" fill="#009CDE"/>
<path d="M13.5372 4.5871C13.7657 3.19355 13.5372 2.20645 12.7947 1.39355C11.9379 0.406452 10.4527 0 8.56776 0H3.08419C2.68435 0 2.34163 0.290323 2.28451 0.696774L-0.000313281 15.4452C-0.0574338 15.7355 0.171048 16.0258 0.456651 16.0258H3.82676L3.59828 17.5355C3.59828 17.7677 3.76964 18 4.05524 18H6.91127C7.25399 18 7.53959 17.7677 7.59671 17.4194V17.2452L8.1108 13.7613L8.16792 13.5871C8.22504 13.2387 8.51064 13.0065 8.85336 13.0065H9.31033C12.1092 13.0065 14.2798 11.8452 14.9081 8.53548C15.1937 7.14193 15.0224 5.98064 14.3369 5.16774C14.1084 4.93548 13.8228 4.76129 13.5372 4.5871Z" fill="#009CDE"/>
<path d="M13.5372 4.5871C13.7657 3.19355 13.5372 2.20645 12.7947 1.39355C11.9379 0.406452 10.4527 0 8.56776 0H3.08419C2.68435 0 2.34163 0.290323 2.28451 0.696774L-0.000313279 15.4452C-0.0574338 15.7355 0.171048 16.0258 0.456651 16.0258H3.82676L4.68357 10.5097V10.6839C4.74069 10.2774 5.08341 9.9871 5.48325 9.9871H7.08263C10.2814 9.9871 12.7376 8.65161 13.4801 4.87742C13.4801 4.76129 13.4801 4.70323 13.5372 4.5871Z" fill="#012169"/>
<path d="M5.65462 4.5871C5.71174 4.35484 5.82598 4.18064 6.05446 4.06452C6.1687 4.00645 6.22582 4.00645 6.34006 4.00645H10.6812C11.1953 4.00645 11.6523 4.06452 12.1092 4.12258C12.2235 4.12258 12.3377 4.18064 12.452 4.18064C12.5662 4.18064 12.6804 4.23871 12.7947 4.29677C12.8518 4.29677 12.9089 4.35484 12.966 4.35484C13.1945 4.4129 13.3659 4.52903 13.5372 4.5871C13.7657 3.19355 13.5372 2.20645 12.7947 1.39355C11.9379 0.406452 10.4527 0 8.56776 0H3.08419C2.68435 0 2.34163 0.290323 2.28451 0.696774L-0.000313279 15.4452C-0.0574338 15.7355 0.171048 16.0258 0.456651 16.0258H3.82676L4.68357 10.5097L5.65462 4.5871Z" fill="#003087"/>
</g>
<defs>
<clipPath id="clip0">
<rect width="73" height="18" fill="white"/>
</clipPath>
</defs>
</svg>