<svg xmlns:xlink="http://www.w3.org/1999/xlink" xmlns="http://www.w3.org/2000/svg" width="71" height="23" viewBox="0 0 71 23" fill="none">
<path d="M14.6008 18.5725H17.9218V8.855H14.6008V18.5725ZM19.0669 2.2425H16.8339V4.485H19.0669V2.2425ZM6.52742 3.335H3.32097V6.1525H6.29839C8.1879 6.1525 9.27581 7.0725 9.27581 8.7975C9.27581 10.5225 8.1879 11.5 6.29839 11.5H3.32097V6.21H0V18.5725H3.32097V14.3175H6.47016C10.3065 14.3175 12.5395 12.2475 12.5395 8.6825C12.5395 5.3475 10.3637 3.335 6.52742 3.335ZM21.3 0H14.6008V6.7275H21.3V0ZM20.2121 5.5775H15.746V1.0925H20.2121V5.5775ZM39.6798 3.335H36.6452V6.1525H39.5081C41.3976 6.1525 42.4855 7.0725 42.4855 8.7975C42.4855 10.5225 41.3976 11.5 39.5081 11.5H36.6452V6.21H33.3242V18.5725H36.6452V14.3175H39.6798C43.5161 14.3175 45.7492 12.2475 45.7492 8.6825C45.7492 5.3475 43.5161 3.335 39.6798 3.335ZM67.5645 6.9L64.7016 14.145L61.8387 6.9H58.4032L62.9839 18.5725L61.2089 23H64.7016L71 6.9H67.5645ZM52.6774 6.8425C50.6734 6.8425 49.1274 7.3025 47.4097 8.165L48.4403 10.465C49.6427 9.775 50.8452 9.43 51.9331 9.43C53.5363 9.43 54.3379 10.12 54.3379 11.385V11.615H51.1315C48.2686 11.615 46.7226 12.9375 46.7226 15.1225C46.7226 17.25 48.2113 18.745 50.7306 18.745C52.3339 18.745 53.479 18.17 54.3952 17.1925V18.4575H57.6589V10.8675C57.5444 8.395 55.7694 6.8425 52.6774 6.8425ZM54.6242 14.6625C54.2806 15.64 53.3073 16.445 51.9331 16.445C50.7879 16.445 50.1008 15.87 50.1008 14.95C50.1008 14.03 50.7306 13.6275 51.9903 13.6275H54.6242V14.6625ZM26.396 16.0425C24.7927 16.0425 23.6476 14.7775 23.6476 12.88C23.6476 11.04 24.7927 9.775 26.396 9.775C27.5411 9.775 28.4 10.235 29.0298 11.04L31.2629 9.43C30.2323 7.8775 28.4573 6.9575 26.2242 6.9575C22.7315 6.9 20.3266 9.315 20.3266 12.88C20.3266 16.445 22.7315 18.8025 26.2242 18.8025C28.629 18.8025 30.404 17.825 31.3774 16.215L29.0871 14.6625C28.5145 15.5825 27.5984 16.0425 26.396 16.0425Z" fill="#21C25E"/>
</svg>