<svg xmlns="http://www.w3.org/2000/svg" xmlns:xlink="http://www.w3.org/1999/xlink" xmlns:xodm="http://www.corel.com/coreldraw/odm/2003" xmlns:dc="http://purl.org/dc/elements/1.1/" xmlns:cc="http://creativecommons.org/ns#" xmlns:rdf="http://www.w3.org/1999/02/22-rdf-syntax-ns#" xmlns:svg="http://www.w3.org/2000/svg" xml:space="preserve" width="75.94" height="27" version="1.1" style="shape-rendering:geometricPrecision; text-rendering:geometricPrecision; image-rendering:optimizeQuality; fill-rule:evenodd; clip-rule:evenodd" viewBox="0 0 647.68 228.58">
 <defs>
  <style type="text/css">
   <![CDATA[
    .str0 {stroke:#939598;stroke-width:8.07;stroke-linecap:round;stroke-linejoin:round;stroke-miterlimit:22.9256}
    .fil0 {fill:none}
    .fil2 {fill:none;fill-rule:nonzero}
    .fil1 {fill:#32BCAD;fill-rule:nonzero}
    .fil3 {fill:#939598;fill-rule:nonzero}
   ]]>
  </style>
 </defs>
 <g id="Camada_x0020_1">
  <metadata id="CorelCorpID_0Corel-Layer"/>
  <g id="_2197794803888">
   <g id="layer1">
    <path id="path2356" class="fil0 str0" d="M261.38 217.67l0 -131.09c0,-24.12 19.56,-43.68 43.68,-43.68l38.7 0.06c24.06,0.05 43.53,19.56 43.53,43.61l0 27.91c0,24.12 -19.56,43.67 -43.68,43.67l-54.69 0"/>
    <path id="path2360" class="fil0 str0" d="M398.1 42.89l16.79 0c9.9,0 17.93,8.02 17.93,17.92l0 97.93"/>
    <g>
     <path id="path2364" class="fil1" d="M429.22 27.72l-7.62 -7.62c-1.89,-1.89 -1.89,-4.95 0,-6.84l7.61 -7.61c1.9,-1.89 4.96,-1.89 6.85,0l7.61 7.61c1.89,1.89 1.89,4.95 0,6.84l-7.61 7.62c-1.89,1.88 -4.95,1.88 -6.84,0l0 0zm0 0l0 0 0 0z"/>
    </g>
    <path id="path2368" class="fil2 str0" d="M465.03 42.8l16.65 0c8.57,0 16.78,3.4 22.84,9.46l38.94 38.95c5.05,5.04 13.23,5.04 18.27,0l38.81 -38.81c6.05,-6.05 14.27,-9.46 22.84,-9.46l13.53 0"/>
    <path id="path2372" class="fil2 str0" d="M465.03 157.88l16.65 0c8.57,0 16.78,-3.4 22.84,-9.46l38.94 -38.94c5.05,-5.05 13.23,-5.05 18.27,0l38.81 38.8c6.05,6.06 14.27,9.46 22.84,9.46l13.53 0"/>
    <path id="path2376" class="fil1" d="M162.11 182.76c-8.36,0 -16.22,-3.25 -22.13,-9.16l-31.94 -31.95c-2.25,-2.24 -6.16,-2.24 -8.4,0l-32.06 32.07c-5.91,5.91 -13.77,9.16 -22.13,9.16l-6.3 0 40.47 40.46c12.63,12.64 33.12,12.64 45.76,0l40.58 -40.58 -3.85 0z"/>
    <path id="path2380" class="fil1" d="M45.45 69.76c8.36,0 16.22,3.25 22.13,9.16l32.06 32.07c2.31,2.31 6.08,2.32 8.4,-0.01l31.94 -31.95c5.91,-5.9 13.77,-9.16 22.13,-9.16l3.85 0 -40.58 -40.58c-12.64,-12.63 -33.13,-12.63 -45.76,0l-40.46 40.47 6.29 0z"/>
    <g>
     <path id="path2384" class="fil1" d="M199.52 103.44l-24.52 -24.52c-0.54,0.21 -1.12,0.35 -1.74,0.35l-11.15 0c-5.76,0 -11.41,2.33 -15.48,6.41l-31.95 31.95c-2.99,2.99 -6.91,4.48 -10.84,4.48 -3.93,0 -7.85,-1.49 -10.84,-4.48l-32.07 -32.07c-4.07,-4.07 -9.72,-6.41 -15.48,-6.41l-13.71 0c-0.58,0 -1.13,-0.14 -1.65,-0.33l-24.62 24.62c-12.63,12.63 -12.63,33.12 0,45.76l24.62 24.62c0.52,-0.2 1.07,-0.33 1.65,-0.33l13.71 0c5.76,0 11.41,-2.34 15.48,-6.42l32.06 -32.06c5.8,-5.79 15.9,-5.79 21.69,0l31.95 31.95c4.07,4.07 9.72,6.41 15.48,6.41l11.15 0c0.62,0 1.2,0.14 1.74,0.35l24.52 -24.52c12.64,-12.64 12.64,-33.13 0,-45.76l0 0zm0 0l0 0 0 0z"/>
    </g>
    <g>
     <path id="path2388" class="fil3" d="M294.67 206.53c-1.81,0 -3.92,0.44 -6,0.92l0 7.99c1.44,0.52 3.09,0.78 4.67,0.78 4.01,0 5.91,-1.36 5.91,-4.88 0,-3.32 -1.56,-4.81 -4.58,-4.81l0 0zm-7.35 14.84l0 -15.8 1.1 0 0.11 0.69c1.86,-0.44 4.42,-1.01 6.25,-1.01 1.49,0 2.91,0.23 4.1,1.19 1.37,1.12 1.81,2.93 1.81,4.9 0,2.06 -0.69,4.01 -2.57,5.08 -1.3,0.73 -3.06,1.03 -4.64,1.03 -1.63,0 -3.19,-0.25 -4.81,-0.73l0 4.65 -1.35 0z"/>
    </g>
    <g>
     <path id="path2392" class="fil3" d="M310.75 206.48c-4.01,0 -5.8,1.26 -5.8,4.79 0,3.41 1.77,4.95 5.8,4.95 3.98,0 5.77,-1.24 5.77,-4.77 0,-3.41 -1.77,-4.97 -5.77,-4.97l0 0zm5.15 9.74c-1.33,0.96 -3.12,1.23 -5.15,1.23 -2.09,0 -3.87,-0.3 -5.18,-1.23 -1.46,-1.03 -2.06,-2.73 -2.06,-4.86 0,-2.11 0.6,-3.82 2.06,-4.88 1.31,-0.93 3.09,-1.23 5.18,-1.23 2.06,0 3.82,0.3 5.15,1.23 1.49,1.06 2.06,2.77 2.06,4.86 0,2.13 -0.6,3.85 -2.06,4.88z"/>
    </g>
    <polygon id="path2396" class="fil3" points="334.86,217.13 330.4,207.54 330.31,207.54 325.91,217.13 324.7,217.13 319.94,205.57 321.42,205.57 325.39,215.28 325.48,215.28 329.78,205.57 331.02,205.57 335.44,215.28 335.53,215.28 339.4,205.57 340.84,205.57 336.08,217.13 "/>
    <g>
     <path id="path2400" class="fil3" d="M349.47 206.46c-3.7,0 -4.96,1.65 -5.19,4.03l10.39 0c-0.11,-2.63 -1.46,-4.03 -5.2,-4.03l0 0zm-0.04 10.99c-2.22,0 -3.66,-0.32 -4.81,-1.28 -1.35,-1.17 -1.81,-2.86 -1.81,-4.81 0,-1.85 0.62,-3.82 2.15,-4.94 1.29,-0.9 2.87,-1.17 4.51,-1.17 1.49,0 3.21,0.16 4.63,1.12 1.67,1.12 1.99,3.09 1.99,5.33l-11.86 0c0.05,2.38 0.83,4.49 5.31,4.49 2.13,0 4.12,-0.34 5.98,-0.66l0 1.21c-1.92,0.35 -4.05,0.71 -6.09,0.71l0 0zm0 0l0 0 0 0z"/>
    </g>
    <path id="path2404" class="fil3" d="M359.97 217.13l0 -11.56 1.1 0 0.11 0.69c2.45,-0.62 3.6,-1.01 5.75,-1.01l0.16 0 0 1.28 -0.32 0c-1.81,0 -2.91,0.25 -5.45,0.92l0 9.68 -1.35 0z"/>
    <g>
     <path id="path2408" class="fil3" d="M374.93 206.46c-3.7,0 -4.96,1.65 -5.19,4.03l10.39 0c-0.11,-2.63 -1.46,-4.03 -5.2,-4.03l0 0zm-0.04 10.99c-2.22,0 -3.66,-0.32 -4.81,-1.28 -1.35,-1.17 -1.81,-2.86 -1.81,-4.81 0,-1.85 0.62,-3.82 2.16,-4.94 1.28,-0.9 2.86,-1.17 4.5,-1.17 1.49,0 3.21,0.16 4.63,1.12 1.67,1.12 1.99,3.09 1.99,5.33l-11.86 0c0.05,2.38 0.83,4.49 5.31,4.49 2.13,0 4.12,-0.34 5.98,-0.66l0 1.21c-1.92,0.35 -4.05,0.71 -6.09,0.71l0 0zm0 0l0 0 0 0z"/>
    </g>
    <path id="path2412" class="fil3" d="M396.35 207.26c-1.44,-0.52 -3.09,-0.78 -4.67,-0.78 -4.01,0 -5.91,1.36 -5.91,4.88 0,3.34 1.56,4.81 4.58,4.81 1.81,0 3.92,-0.44 6,-0.89l0 -8.02zm0.25 9.87l-0.11 -0.69c-1.86,0.44 -4.42,1.01 -6.25,1.01 -1.49,0 -2.91,-0.2 -4.1,-1.19 -1.38,-1.12 -1.81,-2.93 -1.81,-4.9 0,-2.06 0.69,-4.01 2.56,-5.06 1.31,-0.75 3.07,-1.05 4.67,-1.05 1.61,0 3.16,0.27 4.79,0.73l0 -5.29 1.35 0 0 16.44 -1.1 0z"/>
    <g>
     <path id="path2416" class="fil3" d="M417.51 206.53c-1.81,0 -3.92,0.44 -6,0.92l0 7.96c1.46,0.55 3.09,0.81 4.67,0.81 4.01,0 5.91,-1.36 5.91,-4.88 0,-3.32 -1.56,-4.81 -4.58,-4.81l0 0zm3.45 9.89c-1.3,0.73 -3.06,1.03 -4.64,1.03 -1.72,0 -3.44,-0.3 -5.18,-0.87l-0.07 0.55 -0.91 0 0 -16.44 1.35 0 0 5.52c1.85,-0.41 4.35,-0.96 6.11,-0.96 1.49,0 2.91,0.23 4.1,1.19 1.37,1.12 1.81,2.93 1.81,4.9 0,2.06 -0.69,4.01 -2.57,5.08z"/>
    </g>
    <path id="path2420" class="fil3" d="M425.32 221.57l0 -1.26c0.66,0.07 1.28,0.12 1.72,0.12 1.67,0 2.68,-0.48 3.62,-2.38l0.43 -0.92 -6.04 -11.56 1.55 0 5.18 9.98 0.09 0 4.92 -9.98 1.54 0 -6.51 12.98c-1.19,2.36 -2.47,3.14 -4.83,3.14 -0.52,0 -1.1,-0.05 -1.67,-0.12z"/>
    <g>
     <path id="path2424" class="fil3" d="M456.94 210.54l-4.48 0 0 4.05 4.51 0c3.09,0 4.26,-0.34 4.26,-2.04 0,-1.81 -1.61,-2.01 -4.29,-2.01l0 0zm-0.82 -6.57l-3.66 0 0 4.12 3.68 0c3.05,0 4.26,-0.37 4.26,-2.09 0,-1.83 -1.53,-2.03 -4.28,-2.03l0 0zm6.96 12.06c-1.65,1.06 -3.64,1.1 -7.28,1.1l-6.85 0 0 -15.68 6.69 0c3.14,0 5.06,0.04 6.66,1.01 1.15,0.68 1.6,1.74 1.6,3.11 0,1.65 -0.68,2.75 -2.47,3.48l0 0.09c2.02,0.46 3.32,1.49 3.32,3.71 0,1.51 -0.55,2.5 -1.67,3.18l0 0zm0 0l0 0 0 0z"/>
    </g>
    <path id="path2428" class="fil3" d="M478.45 212.28c-1.35,-0.12 -2.73,-0.19 -4.17,-0.19 -2.36,0 -3.18,0.49 -3.18,1.56 0,1.01 0.68,1.56 2.49,1.56 1.51,0 3.32,-0.34 4.86,-0.69l0 -2.24zm0.68 4.85l-0.09 -0.69c-1.97,0.49 -4.26,1.01 -6.27,1.01 -1.24,0 -2.57,-0.16 -3.5,-0.85 -0.87,-0.61 -1.29,-1.62 -1.29,-2.79 0,-1.31 0.58,-2.52 1.95,-3.14 1.21,-0.57 2.84,-0.61 4.33,-0.61 1.21,0 2.84,0.06 4.19,0.16l0 -0.21c0,-1.81 -1.19,-2.4 -4.44,-2.4 -1.26,0 -2.8,0.06 -4.26,0.2l0 -2.33c1.62,-0.14 3.45,-0.23 4.97,-0.23 2.01,0 4.09,0.16 5.38,1.07 1.32,0.94 1.58,2.25 1.58,3.96l0 6.85 -2.55 0z"/>
    <path id="path2432" class="fil3" d="M496.77 217.13l0 -6.39c0,-2.1 -1.07,-2.86 -3,-2.86 -1.42,0 -3.2,0.37 -4.71,0.73l0 8.52 -3.23 0 0 -11.56 2.63 0 0.11 0.73c2.04,-0.52 4.31,-1.05 6.19,-1.05 1.41,0 2.86,0.2 3.96,1.19 0.91,0.82 1.26,1.97 1.26,3.62l0 7.07 -3.21 0z"/>
    <g>
     <path id="path2436" class="fil3" d="M509.1 217.45c-1.49,0 -3.12,-0.2 -4.31,-1.21 -1.42,-1.15 -1.83,-2.96 -1.83,-4.9 0,-1.83 0.6,-3.83 2.36,-4.95 1.44,-0.94 3.23,-1.14 5.08,-1.14 1.33,0 2.63,0.09 4.08,0.23l0 2.47c-1.17,-0.11 -2.57,-0.21 -3.69,-0.21 -3.07,0 -4.51,0.97 -4.51,3.62 0,2.5 1.08,3.57 3.59,3.57 1.47,0 3.19,-0.27 4.86,-0.59l0 2.38c-1.81,0.37 -3.78,0.73 -5.63,0.73l0 0zm0 0l0 0 0 0z"/>
    </g>
    <g>
     <path id="path2440" class="fil3" d="M524.26 207.67c-3.06,0 -4.42,0.97 -4.42,3.6 0,2.63 1.33,3.76 4.42,3.76 3.05,0 4.38,-0.95 4.38,-3.58 0,-2.63 -1.31,-3.78 -4.38,-3.78l0 0zm5.54 8.57c-1.41,0.96 -3.27,1.21 -5.54,1.21 -2.31,0 -4.16,-0.27 -5.56,-1.21 -1.6,-1.05 -2.18,-2.79 -2.18,-4.88 0,-2.08 0.58,-3.85 2.18,-4.9 1.4,-0.94 3.25,-1.21 5.56,-1.21 2.29,0 4.13,0.27 5.54,1.21 1.61,1.05 2.16,2.82 2.16,4.88 0,2.08 -0.58,3.85 -2.16,4.9z"/>
    </g>
    <g>
     <path id="path2444" class="fil3" d="M550.59 217.45c-1.94,0 -4.05,-0.32 -5.63,-1.62 -1.87,-1.56 -2.45,-3.97 -2.45,-6.55 0,-2.31 0.74,-5.06 3.19,-6.66 1.9,-1.24 4.25,-1.49 6.63,-1.49 1.75,0 3.53,0.11 5.48,0.27l0 2.82c-1.67,-0.14 -3.73,-0.25 -5.34,-0.25 -4.46,0 -6.36,1.69 -6.36,5.31 0,3.69 1.76,5.33 5.06,5.33 2.15,0 4.55,-0.43 6.98,-0.94l0 2.8c-2.43,0.48 -4.97,0.98 -7.56,0.98l0 0zm0 0l0 0 0 0z"/>
    </g>
    <g>
     <path id="path2448" class="fil3" d="M567.64 207.31c-2.68,0 -3.71,0.96 -3.92,2.72l7.79 0c-0.1,-1.87 -1.2,-2.72 -3.87,-2.72l0 0zm-0.49 10.14c-1.9,0 -3.61,-0.23 -4.89,-1.28 -1.38,-1.14 -1.86,-2.86 -1.86,-4.83 0,-1.77 0.57,-3.73 2.18,-4.88 1.41,-1.01 3.22,-1.21 5.06,-1.21 1.64,0 3.59,0.18 5.01,1.17 1.85,1.3 2.01,3.32 2.04,5.7l-10.99 0c0.07,1.76 1.01,2.91 4.26,2.91 2.01,0 4.25,-0.3 6.16,-0.6l0 2.27c-2.23,0.36 -4.65,0.75 -6.97,0.75l0 0zm0 0l0 0 0 0z"/>
    </g>
    <path id="path2452" class="fil3" d="M589.05 217.13l0 -6.39c0,-2.1 -1.07,-2.86 -3,-2.86 -1.42,0 -3.2,0.37 -4.72,0.73l0 8.52 -3.22 0 0 -11.56 2.63 0 0.11 0.73c2.04,-0.52 4.31,-1.05 6.19,-1.05 1.41,0 2.86,0.2 3.96,1.19 0.91,0.82 1.26,1.97 1.26,3.62l0 7.07 -3.21 0z"/>
    <g>
     <path id="path2456" class="fil3" d="M601.44 217.45c-1.55,0 -2.97,-0.43 -3.75,-1.65 -0.57,-0.82 -0.85,-1.94 -0.85,-3.5l0 -4.33 -2.33 0 0 -2.4 2.33 0 0.35 -3.51 2.86 0 0 3.51 4.55 0 0 2.4 -4.55 0 0 3.71c0,0.89 0.07,1.65 0.32,2.2 0.34,0.78 1.1,1.08 2.1,1.08 0.76,0 1.68,-0.12 2.32,-0.23l0 2.31c-1.06,0.21 -2.27,0.41 -3.35,0.41l0 0zm0 0l0 0 0 0z"/>
    </g>
    <path id="path2460" class="fil3" d="M607.75 217.13l0 -11.56 2.64 0 0.11 0.73c2.13,-0.59 3.71,-1.05 5.73,-1.05 0.09,0 0.22,0 0.41,0.02l0 2.75c-0.37,-0.02 -0.81,-0.02 -1.13,-0.02 -1.58,0 -2.77,0.18 -4.53,0.59l0 8.54 -3.23 0z"/>
    <path id="path2464" class="fil3" d="M628.37 212.28c-1.35,-0.12 -2.72,-0.19 -4.16,-0.19 -2.36,0 -3.19,0.49 -3.19,1.56 0,1.01 0.69,1.56 2.5,1.56 1.51,0 3.32,-0.34 4.85,-0.69l0 -2.24zm0.69 4.85l-0.09 -0.69c-1.97,0.49 -4.26,1.01 -6.28,1.01 -1.23,0 -2.56,-0.16 -3.5,-0.85 -0.87,-0.61 -1.28,-1.62 -1.28,-2.79 0,-1.31 0.57,-2.52 1.95,-3.14 1.21,-0.57 2.83,-0.61 4.32,-0.61 1.22,0 2.84,0.06 4.19,0.16l0 -0.21c0,-1.81 -1.19,-2.4 -4.44,-2.4 -1.26,0 -2.79,0.06 -4.26,0.2l0 -2.33c1.63,-0.14 3.46,-0.23 4.97,-0.23 2.02,0 4.1,0.16 5.38,1.07 1.33,0.94 1.58,2.25 1.58,3.96l0 6.85 -2.54 0z"/>
    <polygon id="path2466" class="fil3" points="635.75,200.69 638.98,200.69 638.98,217.13 635.75,217.13 "/>
   </g>
  </g>
 </g>
</svg>