<svg xmlns:xlink="http://www.w3.org/1999/xlink" xmlns="http://www.w3.org/2000/svg" width="50" height="16" viewBox="0 0 50 16" fill="none">
<path d="M24.7293 0.323204L21.3233 15.7854H17.2361L20.6421 0.323204H24.7293ZM41.7592 10.2728L43.939 4.49128L45.1652 10.2728H41.7592ZM46.2551 15.6509H49.9336L46.6638 0.188742H43.2578C42.4404 0.188742 41.7592 0.592128 41.4867 1.2644L35.3559 15.5165H39.5794L40.3968 13.2308H45.5739L46.2551 15.6509ZM35.7647 10.6762C35.7647 6.64255 30.0426 6.37364 30.0426 4.62574C30.0426 4.08793 30.5875 3.55011 31.8137 3.2812C32.3587 3.14675 33.9935 3.14675 35.7647 3.95347L36.4459 0.72659C35.4922 0.323229 34.266 0.0543213 32.6312 0.0543213C28.6802 0.0543213 25.8192 2.20557 25.8192 5.16355C25.8192 7.44926 27.8628 8.65936 29.3614 9.33162C30.9963 10.1383 31.405 10.5417 31.405 11.214C31.405 12.2896 30.1788 12.693 28.9527 12.693C26.9091 12.693 25.6829 12.1551 24.8655 11.7518L24.1843 15.1131C25.1379 15.5165 26.9091 15.9199 28.6802 15.9199C32.9036 15.9199 35.7647 13.9031 35.7647 10.6762ZM19.0072 0.323204L12.4677 15.7854H8.24424L4.97449 3.41567C4.83826 2.60894 4.56576 2.34004 4.0208 2.07113C3.06712 1.53331 1.43225 0.995498 0.0698547 0.72659L0.206103 0.323204H7.01809C7.83553 0.323204 8.65296 0.861036 8.92544 1.93667L10.5603 10.8106L14.7837 0.323204H19.0072Z" fill="#1A1F70"/>
</svg>